<svg width="24" height="24" viewBox="0 0 24 24" fill="none" xmlns="http://www.w3.org/2000/svg">
<path d="M20.3541 15.3545C18.7173 16.0127 16.9232 16.1753 15.1948 15.8222C13.4663 15.4691 11.8797 14.6158 10.6323 13.3683C9.38484 12.1209 8.53151 10.5343 8.17839 8.80584C7.82527 7.07738 7.98791 5.28326 8.64611 3.64648C6.70782 4.42722 5.10148 5.85787 4.10244 7.6932C3.1034 9.52854 2.77391 11.6542 3.17043 13.7059C3.56695 15.7575 4.6648 17.6074 6.27577 18.9383C7.88674 20.2692 9.9105 20.9982 12.0001 21.0005C13.797 21.0005 15.5529 20.4629 17.0417 19.4567C18.5305 18.4505 19.6841 17.0218 20.3541 15.3545Z" stroke="#68738D" stroke-width="1.5" stroke-linecap="round" stroke-linejoin="round"/>
</svg>
