<svg width="24" height="24" viewBox="0 0 24 24" fill="none" xmlns="http://www.w3.org/2000/svg">
<path fill-rule="evenodd" clip-rule="evenodd" d="M11.9999 2.40039C12.3182 2.40039 12.6234 2.52682 12.8484 2.75186C13.0735 2.97691 13.1999 3.28213 13.1999 3.60039V4.80039C13.1999 5.11865 13.0735 5.42387 12.8484 5.64892C12.6234 5.87396 12.3182 6.00039 11.9999 6.00039C11.6816 6.00039 11.3764 5.87396 11.1514 5.64892C10.9263 5.42387 10.7999 5.11865 10.7999 4.80039V3.60039C10.7999 3.28213 10.9263 2.97691 11.1514 2.75186C11.3764 2.52682 11.6816 2.40039 11.9999 2.40039ZM16.7999 12.0004C16.7999 13.2734 16.2942 14.4943 15.394 15.3945C14.4938 16.2947 13.2729 16.8004 11.9999 16.8004C10.7269 16.8004 9.50596 16.2947 8.60579 15.3945C7.70561 14.4943 7.1999 13.2734 7.1999 12.0004C7.1999 10.7274 7.70561 9.50645 8.60579 8.60628C9.50596 7.7061 10.7269 7.20039 11.9999 7.20039C13.2729 7.20039 14.4938 7.7061 15.394 8.60628C16.2942 9.50645 16.7999 10.7274 16.7999 12.0004ZM16.2431 17.9404L17.0915 18.7888C17.3178 19.0074 17.6209 19.1283 17.9356 19.1256C18.2502 19.1229 18.5512 18.9967 18.7737 18.7742C18.9962 18.5517 19.1224 18.2507 19.1251 17.9361C19.1278 17.6214 19.0069 17.3183 18.7883 17.092L17.9399 16.2436C17.7136 16.025 17.4105 15.904 17.0958 15.9068C16.7812 15.9095 16.4802 16.0357 16.2577 16.2582C16.0352 16.4807 15.909 16.7817 15.9063 17.0963C15.9036 17.4109 16.0245 17.7141 16.2431 17.9404ZM18.7871 5.21199C19.0121 5.43702 19.1384 5.74219 19.1384 6.06039C19.1384 6.37859 19.0121 6.68376 18.7871 6.90879L17.9399 7.75719C17.8292 7.8718 17.6968 7.96322 17.5504 8.02611C17.404 8.089 17.2465 8.12211 17.0872 8.12349C16.9278 8.12487 16.7698 8.09451 16.6224 8.03418C16.4749 7.97384 16.3409 7.88474 16.2282 7.77206C16.1156 7.65939 16.0265 7.52541 15.9661 7.37793C15.9058 7.23046 15.8754 7.07244 15.8768 6.91311C15.8782 6.75377 15.9113 6.59631 15.9742 6.4499C16.0371 6.3035 16.1285 6.17109 16.2431 6.06039L17.0915 5.21199C17.3165 4.98702 17.6217 4.86065 17.9399 4.86065C18.2581 4.86065 18.5621 4.98702 18.7871 5.21199ZM20.3999 13.2004C20.7182 13.2004 21.0234 13.074 21.2484 12.8489C21.4735 12.6239 21.5999 12.3186 21.5999 12.0004C21.5999 11.6821 21.4735 11.3769 21.2484 11.1519C21.0234 10.9268 20.7182 10.8004 20.3999 10.8004H19.1999C18.8816 10.8004 18.5764 10.9268 18.3514 11.1519C18.1263 11.3769 17.9999 11.6821 17.9999 12.0004C17.9999 12.3186 18.1263 12.6239 18.3514 12.8489C18.5764 13.074 18.8816 13.2004 19.1999 13.2004H20.3999ZM11.9999 18.0004C12.3182 18.0004 12.6234 18.1268 12.8484 18.3519C13.0735 18.5769 13.1999 18.8821 13.1999 19.2004V20.4004C13.1999 20.7186 13.0735 21.0239 12.8484 21.2489C12.6234 21.474 12.3182 21.6004 11.9999 21.6004C11.6816 21.6004 11.3764 21.474 11.1514 21.2489C10.9263 21.0239 10.7999 20.7186 10.7999 20.4004V19.2004C10.7999 18.8821 10.9263 18.5769 11.1514 18.3519C11.3764 18.1268 11.6816 18.0004 11.9999 18.0004ZM6.0599 7.75719C6.17132 7.86868 6.3036 7.95714 6.4492 8.01751C6.5948 8.07788 6.75086 8.10898 6.90848 8.10903C7.0661 8.10909 7.22218 8.0781 7.36782 8.01783C7.51346 7.95757 7.64581 7.8692 7.7573 7.75779C7.86879 7.64638 7.95725 7.51409 8.01762 7.36849C8.07799 7.2229 8.10909 7.06683 8.10914 6.90921C8.1092 6.7516 8.07821 6.59551 8.01794 6.44987C7.95768 6.30423 7.86932 6.17188 7.7579 6.06039L6.9083 5.21199C6.68198 4.9934 6.37886 4.87245 6.06422 4.87518C5.74958 4.87792 5.44861 5.00412 5.22612 5.22661C5.00363 5.4491 4.87743 5.75007 4.87469 6.06471C4.87196 6.37934 4.99291 6.68247 5.2115 6.90879L6.0599 7.75719ZM7.7567 17.9404L6.9083 18.7888C6.68198 19.0074 6.37886 19.1283 6.06422 19.1256C5.74958 19.1229 5.44861 18.9967 5.22612 18.7742C5.00363 18.5517 4.87743 18.2507 4.87469 17.9361C4.87196 17.6214 4.99291 17.3183 5.2115 17.092L6.0599 16.2436C6.28622 16.025 6.58935 15.904 6.90398 15.9068C7.21862 15.9095 7.51959 16.0357 7.74208 16.2582C7.96457 16.4807 8.09078 16.7817 8.09351 17.0963C8.09624 17.4109 7.97529 17.7141 7.7567 17.9404ZM4.7999 13.2004C5.11816 13.2004 5.42339 13.074 5.64843 12.8489C5.87347 12.6239 5.9999 12.3186 5.9999 12.0004C5.9999 11.6821 5.87347 11.3769 5.64843 11.1519C5.42339 10.9268 5.11816 10.8004 4.7999 10.8004H3.5999C3.28164 10.8004 2.97642 10.9268 2.75137 11.1519C2.52633 11.3769 2.3999 11.6821 2.3999 12.0004C2.3999 12.3186 2.52633 12.6239 2.75137 12.8489C2.97642 13.074 3.28164 13.2004 3.5999 13.2004H4.7999Z" fill="#316AFF"/>
</svg>
