<svg width="18" height="19" viewBox="0 0 18 19" fill="none" xmlns="http://www.w3.org/2000/svg">
    <g clip-path="url(#clip0_1155_738)">
        <path
            d="M12.7127 1.08926H9.53457C8.80332 1.08926 8.18457 1.70801 8.18457 2.43926V4.37989C8.18457 4.71739 8.46582 4.99864 8.80332 4.99864C9.14082 4.99864 9.45019 4.71739 9.45019 4.37989V2.41114C9.45019 2.35489 9.47832 2.32676 9.53457 2.32676H12.7127C13.3877 2.32676 13.9221 2.86114 13.9221 3.53614V15.6018C13.9221 16.2768 13.3877 16.8111 12.7127 16.8111H9.53457C9.47832 16.8111 9.45019 16.783 9.45019 16.7268V14.7861C9.45019 14.4486 9.16894 14.1674 8.80332 14.1674C8.43769 14.1674 8.18457 14.4486 8.18457 14.7861V16.7268C8.18457 17.458 8.80332 18.0768 9.53457 18.0768H12.7127C14.0908 18.0768 15.1877 16.9518 15.1877 15.6018V3.56426C15.1877 2.18614 14.0627 1.08926 12.7127 1.08926Z"
            fill="#DEE4EE" />
        <path
            d="M10.4346 9.13301L7.62207 6.26426C7.36895 6.01114 6.97519 6.01114 6.72207 6.26426C6.46895 6.51739 6.46895 6.91114 6.72207 7.16426L8.46582 8.93614H3.45957C3.12207 8.93614 2.84082 9.21739 2.84082 9.55489C2.84082 9.89239 3.12207 10.1736 3.45957 10.1736H8.49395L6.72207 11.9736C6.46895 12.2268 6.46895 12.6205 6.72207 12.8736C6.83457 12.9861 7.00332 13.0424 7.17207 13.0424C7.34082 13.0424 7.50957 12.9861 7.62207 12.8455L10.4346 9.97676C10.6877 9.77989 10.6877 9.38614 10.4346 9.13301Z"
            fill="#DEE4EE" />
    </g>
    <defs>
        <clipPath id="clip0_1155_738">
            <rect width="18" height="18" fill="white" transform="translate(0 0.583008)" />
        </clipPath>
    </defs>
</svg>
