<svg width="18" height="18" viewBox="0 0 18 18" fill="none" xmlns="http://www.w3.org/2000/svg">
<g clip-path="url(#clip0_1155_721)">
<path d="M10.8563 0.506226C10.5188 0.506226 10.2095 0.787476 10.2095 1.1531V6.7781C10.2095 7.1156 10.4907 7.42498 10.8563 7.42498H16.8751C17.0438 7.42498 17.2126 7.3406 17.3251 7.2281C17.4376 7.08748 17.4938 6.91873 17.4938 6.74998C17.2688 3.23435 14.3438 0.506226 10.8563 0.506226ZM11.4751 6.1031V1.79998C13.8095 2.08123 15.6938 3.82498 16.1438 6.13123H11.4751V6.1031Z" fill="#DEE4EE"/>
<path d="M15.3845 8.69057H9.1126V2.6437C9.1126 2.3062 8.83135 2.02495 8.49385 2.02495C8.40947 2.02495 8.3251 2.02495 8.24072 2.02495C3.96572 1.99682 0.506348 5.48432 0.506348 9.75932C0.506348 14.0343 3.99385 17.5218 8.26885 17.5218C12.5438 17.5218 16.0313 14.0343 16.0313 9.75932C16.0313 9.59057 16.0313 9.42182 16.0032 9.2812C16.0032 8.9437 15.722 8.69057 15.3845 8.69057ZM8.26885 16.2562C4.66885 16.2562 1.77197 13.3593 1.77197 9.75932C1.77197 6.32807 4.47197 3.48745 7.8751 3.29057V9.30932C7.8751 9.64682 8.15635 9.9562 8.52197 9.9562H14.7938C14.6813 13.4437 11.7845 16.2562 8.26885 16.2562Z" fill="#DEE4EE"/>
</g>
<defs>
<clipPath id="clip0_1155_721">
<rect width="18" height="18" fill="white"/>
</clipPath>
</defs>
</svg>
