<?xml version="1.0" standalone="no"?><!DOCTYPE svg PUBLIC "-//W3C//DTD SVG 1.1//EN" "http://www.w3.org/Graphics/SVG/1.1/DTD/svg11.dtd"><svg t="1715838853506" class="icon" viewBox="0 0 1024 1024" version="1.1" xmlns="http://www.w3.org/2000/svg" p-id="2525" xmlns:xlink="http://www.w3.org/1999/xlink" width="200" height="200"><path d="M957.217391 1019.547826H155.826087A129.113043 129.113043 0 0 1 26.713043 890.434783V133.565217A129.113043 129.113043 0 0 1 155.826087 4.452174h712.347826A129.113043 129.113043 0 0 1 997.286957 133.565217v621.078261a39.401739 39.401739 0 0 1-8.592696 27.024696c-24.30887 30.809043-35.706435 59.436522-35.706435 86.505739 0 27.069217 11.397565 55.652174 35.706435 86.505739A40.069565 40.069565 0 0 1 957.217391 1019.547826z m-40.069565-302.747826V133.565217A48.973913 48.973913 0 0 0 868.173913 84.591304H155.826087A48.973913 48.973913 0 0 0 106.852174 133.565217v601.043479a150.706087 150.706087 0 0 1 71.234783-17.808696h739.060869z m-739.060869 222.608696h709.097739a188.861217 188.861217 0 0 1-14.336-71.234783c0-24.041739 4.85287-47.771826 14.336-71.234783H178.086957a71.234783 71.234783 0 1 0 0 142.469566zM289.391304 222.608696h445.217392a44.521739 44.521739 0 0 1 0 89.043478H289.391304a44.521739 44.521739 0 1 1 0-89.043478z m0 267.130434h445.217392a44.521739 44.521739 0 0 1 0 89.043479H289.391304a44.521739 44.521739 0 0 1 0-89.043479z" fill="#000000" p-id="2526"></path></svg>