<?xml version="1.0" standalone="no"?><!DOCTYPE svg PUBLIC "-//W3C//DTD SVG 1.1//EN" "http://www.w3.org/Graphics/SVG/1.1/DTD/svg11.dtd"><svg t="1717137490035" class="icon" viewBox="0 0 1024 1024" version="1.1" xmlns="http://www.w3.org/2000/svg" p-id="4332" xmlns:xlink="http://www.w3.org/1999/xlink" width="200" height="200"><path d="M832 64a96 96 0 0 1 96 96v704a64 64 0 0 1-102.4 51.2L768 872l-89.6 67.2a64 64 0 0 1-76.8 0l-89.6-67.2-89.6 67.2a64 64 0 0 1-76.8 0L256 872 198.4 915.2A64 64 0 0 1 96 864V160a96 96 0 0 1 96-96z m0 64H192a32 32 0 0 0-32 32v703.968l57.6-43.168a64 64 0 0 1 72.128-3.2l4.672 3.2 89.6 67.2 89.6-67.2a64 64 0 0 1 76.8 0l89.6 67.2 89.6-67.2a64 64 0 0 1 76.8 0L864 864V160a32 32 0 0 0-32-32z m-122.112 352c14.4 0 26.112 14.336 26.112 32 0 16.416-10.08 29.952-23.04 31.776l-3.072 0.224H314.112C299.712 544 288 529.664 288 512c0-16.416 10.08-29.952 23.04-31.776L314.144 480h395.776z m0-160c14.4 0 26.112 14.336 26.112 32 0 16.416-10.08 29.952-23.04 31.776l-3.072 0.224H314.112C299.712 384 288 369.664 288 352c0-16.416 10.08-29.952 23.04-31.776L314.144 320h395.776z" fill="#2c2c2c" p-id="4333"></path></svg>