<svg width="18" height="18" viewBox="0 0 18 18" fill="none" xmlns="http://www.w3.org/2000/svg">
<path d="M14.2875 0.506226H3.7125C2.75625 0.506226 1.96875 1.29373 1.96875 2.24998V15.75C1.96875 16.7062 2.75625 17.5219 3.74063 17.5219H14.3156C15.2719 17.5219 16.0875 16.7344 16.0875 15.75V2.24998C16.0313 1.29373 15.2438 0.506226 14.2875 0.506226ZM14.7656 15.75C14.7656 16.0312 14.5406 16.2562 14.2594 16.2562H3.7125C3.43125 16.2562 3.20625 16.0312 3.20625 15.75V2.24998C3.20625 1.96873 3.43125 1.74373 3.7125 1.74373H14.2875C14.5688 1.74373 14.7938 1.96873 14.7938 2.24998V15.75H14.7656Z" fill="#DEE4EE"/>
<path d="M12.797 2.6156H9.73135C9.2251 2.6156 8.80322 3.03748 8.80322 3.54373V7.25623C8.80322 7.76248 9.2251 8.18435 9.73135 8.18435H12.797C13.3032 8.18435 13.7251 7.76248 13.7251 7.25623V3.5156C13.697 3.03748 13.3032 2.6156 12.797 2.6156ZM12.4313 6.8906H10.0688V3.88123H12.4313V6.8906Z" fill="#DEE4EE"/>
<path d="M4.97822 4.35938H7.03135C7.36885 4.35938 7.67822 4.07812 7.67822 3.7125C7.67822 3.34687 7.39697 3.09375 7.03135 3.09375H4.9501C4.6126 3.09375 4.30322 3.375 4.30322 3.74063C4.30322 4.10625 4.6126 4.35938 4.97822 4.35938Z" fill="#DEE4EE"/>
<path d="M4.97822 7.9312H7.03135C7.36885 7.9312 7.67822 7.64995 7.67822 7.28433C7.67822 6.9187 7.39697 6.63745 7.03135 6.63745H4.9501C4.6126 6.63745 4.30322 6.9187 4.30322 7.28433C4.30322 7.64995 4.6126 7.9312 4.97822 7.9312Z" fill="#DEE4EE"/>
<path d="M13.0779 10.2374H4.97793C4.64043 10.2374 4.33105 10.5187 4.33105 10.8843C4.33105 11.2499 4.61231 11.5312 4.97793 11.5312H13.0779C13.4154 11.5312 13.7248 11.2499 13.7248 10.8843C13.7248 10.5187 13.4154 10.2374 13.0779 10.2374Z" fill="#DEE4EE"/>
<path d="M13.0779 13.8093H4.97793C4.64043 13.8093 4.33105 14.0906 4.33105 14.4562C4.33105 14.8218 4.61231 15.1031 4.97793 15.1031H13.0779C13.4154 15.1031 13.7248 14.8218 13.7248 14.4562C13.7248 14.0906 13.4154 13.8093 13.0779 13.8093Z" fill="#DEE4EE"/>
</svg>
