<svg width="16" height="18" viewBox="0 0 16 18" fill="none" xmlns="http://www.w3.org/2000/svg">
<path d="M8.0002 7.79065C10.0814 7.79065 11.7689 6.1594 11.7689 4.1344C11.7689 2.1094 10.0814 0.478149 8.0002 0.478149C5.91895 0.478149 4.23145 2.1094 4.23145 4.1344C4.23145 6.1594 5.91895 7.79065 8.0002 7.79065ZM8.0002 1.7719C9.37832 1.7719 10.5033 2.84065 10.5033 4.16252C10.5033 5.4844 9.37832 6.55315 8.0002 6.55315C6.62207 6.55315 5.49707 5.4844 5.49707 4.16252C5.49707 2.84065 6.62207 1.7719 8.0002 1.7719Z" fill="#DEE4EE"/>
<path d="M9.82832 9.05627H6.17207C3.16269 9.05627 0.71582 11.5313 0.71582 14.5406V16.875C0.71582 17.2125 0.99707 17.5219 1.3627 17.5219C1.72832 17.5219 2.00957 17.2407 2.00957 16.875V14.5406C2.00957 12.2344 3.89394 10.3219 6.22832 10.3219H9.85644C12.1627 10.3219 14.0752 12.2063 14.0752 14.5406V16.875C14.0752 17.2125 14.3564 17.5219 14.7221 17.5219C15.0877 17.5219 15.3689 17.2407 15.3689 16.875V14.5406C15.2846 11.5313 12.8377 9.05627 9.82832 9.05627Z" fill="#DEE4EE"/>
</svg>
