<svg width="18" height="18" viewBox="0 0 18 18" fill="none" xmlns="http://www.w3.org/2000/svg">
<g clip-path="url(#clip0_1155_673)">
<path d="M15.7501 0.506226H2.2501C1.29385 0.506226 0.506348 1.29373 0.506348 2.24998V15.75C0.506348 16.7062 1.29385 17.5219 2.27822 17.5219H15.7782C16.7345 17.5219 17.5501 16.7344 17.5501 15.75V2.24998C17.522 1.29373 16.7063 0.506226 15.7501 0.506226ZM6.69385 10.5469V6.41248H11.3063V10.5187H6.69385V10.5469ZM11.3063 11.8125V16.2562H6.69385V11.8125H11.3063ZM1.77197 6.41248H5.45635V10.5187H1.77197V6.41248ZM12.572 6.41248H16.2563V10.5187H12.572V6.41248ZM2.2501 1.77185H15.7501C16.0313 1.77185 16.2563 1.99685 16.2563 2.2781V5.17498H1.77197V2.24998C1.77197 1.96873 1.96885 1.77185 2.2501 1.77185ZM1.77197 15.75V11.8125H5.45635V16.2562H2.2501C1.96885 16.2562 1.77197 16.0312 1.77197 15.75ZM15.7501 16.2562H12.572V11.8125H16.2563V15.75C16.2563 16.0312 16.0313 16.2562 15.7501 16.2562Z" fill="#DEE4EE"/>
</g>
<defs>
<clipPath id="clip0_1155_673">
<rect width="18" height="18" fill="white"/>
</clipPath>
</defs>
</svg>
