<?xml version="1.0" standalone="no"?><!DOCTYPE svg PUBLIC "-//W3C//DTD SVG 1.1//EN" "http://www.w3.org/Graphics/SVG/1.1/DTD/svg11.dtd"><svg t="1715838918060" class="icon" viewBox="0 0 1024 1024" version="1.1" xmlns="http://www.w3.org/2000/svg" p-id="4661" xmlns:xlink="http://www.w3.org/1999/xlink" width="200" height="200"><path d="M512 85.333333c235.637333 0 426.666667 191.029333 426.666667 426.666667S747.637333 938.666667 512 938.666667 85.333333 747.637333 85.333333 512 276.362667 85.333333 512 85.333333z m0 64c-200.298667 0-362.666667 162.368-362.666667 362.666667s162.368 362.666667 362.666667 362.666667 362.666667-162.368 362.666667-362.666667-162.368-362.666667-362.666667-362.666667z m149.162667 158.901334a42.666667 42.666667 0 0 1 54.602666 54.602666L637.642667 579.84a96 96 0 0 1-57.813334 57.802667l-216.992 78.122666a42.666667 42.666667 0 0 1-54.602666-54.602666l78.122666-217.002667a96 96 0 0 1 57.813334-57.802667z m-20.970667 75.573333l-174.346667 62.762667a32 32 0 0 0-19.274666 19.274666l-62.762667 174.346667 174.346667-62.762667a32 32 0 0 0 19.274666-19.274666l62.762667-174.346667z" fill="#000000" p-id="4662"></path></svg>