<svg width="18" height="18" viewBox="0 0 18 18" fill="none" xmlns="http://www.w3.org/2000/svg">
<g clip-path="url(#clip0_1155_728)">
<path d="M15.7501 0.506226H2.2501C1.29385 0.506226 0.506348 1.29373 0.506348 2.24998V7.48123C0.506348 8.43748 1.29385 9.22498 2.2501 9.22498H15.7501C16.7063 9.22498 17.4938 8.43748 17.4938 7.48123V2.24998C17.4938 1.29373 16.7063 0.506226 15.7501 0.506226ZM16.2563 7.48123C16.2563 7.76248 16.0313 7.98748 15.7501 7.98748H2.2501C1.96885 7.98748 1.74385 7.76248 1.74385 7.48123V2.24998C1.74385 1.96873 1.96885 1.74373 2.2501 1.74373H15.7501C16.0313 1.74373 16.2563 1.96873 16.2563 2.24998V7.48123Z" fill="#DEE4EE"/>
<path d="M6.13135 10.9125H2.2501C1.29385 10.9125 0.506348 11.7 0.506348 12.6562V15.75C0.506348 16.7062 1.29385 17.4937 2.2501 17.4937H6.13135C7.0876 17.4937 7.8751 16.7062 7.8751 15.75V12.6562C7.90322 11.7 7.11572 10.9125 6.13135 10.9125ZM6.6376 15.75C6.6376 16.0312 6.4126 16.2562 6.13135 16.2562H2.2501C1.96885 16.2562 1.74385 16.0312 1.74385 15.75V12.6562C1.74385 12.375 1.96885 12.15 2.2501 12.15H6.13135C6.4126 12.15 6.6376 12.375 6.6376 12.6562V15.75Z" fill="#DEE4EE"/>
<path d="M15.75 10.9125H11.8688C10.9125 10.9125 10.125 11.7 10.125 12.6562V15.75C10.125 16.7062 10.9125 17.4937 11.8688 17.4937H15.75C16.7063 17.4937 17.4938 16.7062 17.4938 15.75V12.6562C17.4938 11.7 16.7063 10.9125 15.75 10.9125ZM16.2562 15.75C16.2562 16.0312 16.0312 16.2562 15.75 16.2562H11.8688C11.5875 16.2562 11.3625 16.0312 11.3625 15.75V12.6562C11.3625 12.375 11.5875 12.15 11.8688 12.15H15.75C16.0312 12.15 16.2562 12.375 16.2562 12.6562V15.75Z" fill="#DEE4EE"/>
</g>
<defs>
<clipPath id="clip0_1155_728">
<rect width="18" height="18" fill="white"/>
</clipPath>
</defs>
</svg>
