<svg width="22" height="22" viewBox="0 0 22 22" fill="none" xmlns="http://www.w3.org/2000/svg">
<g opacity="0.5">
<path d="M19.2496 3.30005H2.74961C1.58086 3.30005 0.583984 4.26255 0.583984 5.46567V16.6032C0.583984 17.7719 1.54648 18.7688 2.74961 18.7688H19.2496C20.4184 18.7688 21.4152 17.8063 21.4152 16.6032V5.4313C21.4152 4.26255 20.4184 3.30005 19.2496 3.30005ZM19.2496 4.84692C19.284 4.84692 19.3184 4.84692 19.3527 4.84692L10.9996 10.2094L2.64648 4.84692C2.68086 4.84692 2.71523 4.84692 2.74961 4.84692H19.2496ZM19.2496 17.1532H2.74961C2.40586 17.1532 2.13086 16.8782 2.13086 16.5344V6.35942L10.1746 11.5157C10.4152 11.6875 10.6902 11.7563 10.9652 11.7563C11.2402 11.7563 11.5152 11.6875 11.7559 11.5157L19.7996 6.35942V16.5688C19.8684 16.9125 19.5934 17.1532 19.2496 17.1532Z" fill="#64748B"/>
</g>
</svg>
