<svg width="24" height="24" viewBox="0 0 24 24" fill="none" xmlns="http://www.w3.org/2000/svg">
<path d="M21.7499 16.595L21.75 16.595C21.7636 16.5819 21.7745 16.5661 21.782 16.5487C21.7895 16.5313 21.7935 16.5125 21.7936 16.4935C21.7938 16.4746 21.7902 16.4558 21.783 16.4382C21.7758 16.4206 21.7652 16.4047 21.7518 16.3913C21.7384 16.3778 21.7225 16.3672 21.7049 16.36L21.8945 15.8974L21.7049 16.36C21.6874 16.3529 21.6686 16.3492 21.6496 16.3494C21.6306 16.3495 21.6119 16.3535 21.5945 16.3609C21.577 16.3684 21.5612 16.3793 21.5481 16.3929L21.5422 16.399L21.5421 16.399L16.8536 21.0875L16.5001 21.441L16.1465 21.0876L14.0395 18.9815C14.013 18.9586 13.979 18.9463 13.9438 18.9469C13.9068 18.9476 13.8715 18.9625 13.8453 18.9887C13.8191 19.0149 13.8042 19.0502 13.8035 19.0872C13.8029 19.1223 13.8152 19.1564 13.838 19.1829L16.3991 21.7439L21.7499 16.595ZM21.7499 16.595L21.7436 16.6013M21.7499 16.595L21.7436 16.6013M21.7436 16.6013L16.601 21.7439L21.7436 16.6013ZM16.5 21.7857C16.5378 21.7857 16.574 21.7708 16.6007 21.7441L16.5 21.7857ZM16.5 21.7857C16.4623 21.7857 16.426 21.7708 16.3993 21.7441L16.5 21.7857ZM3.92859 4.50056C3.92859 3.89435 4.1694 3.31297 4.59806 2.88431C5.02671 2.45566 5.60809 2.21484 6.2143 2.21484H17.7857C18.3919 2.21484 18.9733 2.45566 19.402 2.88431C19.8306 3.31297 20.0714 3.89435 20.0714 4.50056V14.6488C20.0213 14.6914 19.9726 14.7363 19.9256 14.7833L19.7857 14.9232V4.50056C19.7857 3.97013 19.575 3.46142 19.1999 3.08634C18.8249 2.71127 18.3162 2.50056 17.7857 2.50056H6.2143C5.68387 2.50056 5.17516 2.71127 4.80009 3.08634C4.42502 3.46142 4.2143 3.97012 4.2143 4.50056V19.5006C4.2143 20.6047 5.11016 21.5006 6.2143 21.5006H12.9226L13.2083 21.7863H6.2143C5.60809 21.7863 5.02671 21.5455 4.59806 21.1168C4.1694 20.6881 3.92859 20.1068 3.92859 19.5006V4.50056ZM8.50002 7.50056C8.50002 7.65211 8.43981 7.79746 8.33265 7.90462C8.22549 8.01178 8.08014 8.07199 7.92859 8.07199C7.77704 8.07199 7.63169 8.01178 7.52453 7.90462C7.41736 7.79746 7.35716 7.65211 7.35716 7.50056C7.35716 7.34901 7.41736 7.20366 7.52453 7.0965C7.63169 6.98933 7.77704 6.92913 7.92859 6.92913C8.08014 6.92913 8.22549 6.98933 8.33265 7.0965C8.43981 7.20366 8.50002 7.34901 8.50002 7.50056ZM8.33265 12.4046C8.22549 12.5118 8.08014 12.572 7.92859 12.572C7.77704 12.572 7.63169 12.5118 7.52453 12.4046C7.41736 12.2975 7.35716 12.1521 7.35716 12.0006C7.35716 11.849 7.41736 11.7037 7.52453 11.5965C7.63169 11.4893 7.77704 11.4291 7.92859 11.4291C8.08014 11.4291 8.22549 11.4893 8.33265 11.5965C8.43981 11.7037 8.50002 11.849 8.50002 12.0006C8.50002 12.1521 8.43981 12.2975 8.33265 12.4046ZM8.33265 16.9046C8.22549 17.0118 8.08014 17.072 7.92859 17.072C7.77704 17.072 7.63169 17.0118 7.52453 16.9046C7.41736 16.7975 7.35716 16.6521 7.35716 16.5006C7.35716 16.349 7.41736 16.2037 7.52453 16.0965C7.63169 15.9893 7.77704 15.9291 7.92859 15.9291C8.08014 15.9291 8.22549 15.9893 8.33265 16.0965C8.43981 16.2037 8.50002 16.349 8.50002 16.5006C8.50002 16.6521 8.43981 16.7975 8.33265 16.9046ZM10.8276 7.39954C10.8544 7.37275 10.8907 7.3577 10.9286 7.3577H16.5C16.5379 7.3577 16.5742 7.37275 16.601 7.39954C16.6278 7.42633 16.6429 7.46267 16.6429 7.50056C16.6429 7.53845 16.6278 7.57478 16.601 7.60157C16.5742 7.62836 16.5379 7.64342 16.5 7.64342H10.9286C10.8907 7.64342 10.8544 7.62837 10.8276 7.60157C10.8008 7.57478 10.7857 7.53845 10.7857 7.50056C10.7857 7.46267 10.8008 7.42633 10.8276 7.39954ZM10.7857 12.0006C10.7857 11.9627 10.8008 11.9263 10.8276 11.8995C10.8544 11.8728 10.8907 11.8577 10.9286 11.8577H16.5C16.5379 11.8577 16.5742 11.8728 16.601 11.8995C16.6278 11.9263 16.6429 11.9627 16.6429 12.0006C16.6429 12.0384 16.6278 12.0748 16.601 12.1016C16.5742 12.1284 16.5379 12.1434 16.5 12.1434H10.9286C10.8907 12.1434 10.8544 12.1284 10.8276 12.1016C10.8008 12.0748 10.7857 12.0384 10.7857 12.0006ZM10.8276 16.3995C10.8544 16.3728 10.8907 16.3577 10.9286 16.3577H16.5C16.5379 16.3577 16.5742 16.3728 16.601 16.3995C16.6278 16.4263 16.6429 16.4627 16.6429 16.5006C16.6429 16.5384 16.6278 16.5748 16.601 16.6016C16.5742 16.6284 16.5379 16.6434 16.5 16.6434H10.9286C10.8907 16.6434 10.8544 16.6284 10.8276 16.6016C10.8008 16.5748 10.7857 16.5384 10.7857 16.5006C10.7857 16.4627 10.8008 16.4263 10.8276 16.3995Z" fill="#5D6B82" stroke="#68738D"/>
</svg>
