<svg width="480" height="465" viewBox="0 0 480 465" fill="none" xmlns="http://www.w3.org/2000/svg">
<path d="M430.205 69.8716C400.832 2.89705 330.327 -22.3202 274.698 22.6482C252.975 40.1917 239.422 68.1125 212.824 79.3162C187.866 89.8234 156.25 86.7303 129.262 92.4207C71.7911 104.463 -5.58436 150.151 0.318559 220.549C2.90404 251.386 23.7059 285.635 33.9888 314.489C45.7946 347.687 52.8781 389.219 84.1282 409.065C137.703 443.137 202.328 415.287 250.591 387.815C276.563 373.045 290.86 363.967 318.828 369.031C344.719 373.754 368.035 390.282 393.335 370.673C412.331 355.951 413.901 326.117 429.85 308.597C447.819 288.858 466.035 287.43 475.374 257.761C486.695 221.765 470.014 199.275 458.739 167.116C447.465 134.957 444.041 101.381 430.205 69.8716Z" fill="#C9D9FF"/>
<path d="M206.698 464.988C307.487 464.988 389.192 459.898 389.192 453.619C389.192 447.34 307.487 442.25 206.698 442.25C105.909 442.25 24.2031 447.34 24.2031 453.619C24.2031 459.898 105.909 464.988 206.698 464.988Z" fill="#316AFF"/>
<path opacity="0.8" d="M206.698 464.988C307.487 464.988 389.192 459.898 389.192 453.619C389.192 447.34 307.487 442.25 206.698 442.25C105.909 442.25 24.2031 447.34 24.2031 453.619C24.2031 459.898 105.909 464.988 206.698 464.988Z" fill="white"/>
<path d="M343.835 21.3027H160.337C147.668 21.3027 137.398 31.5728 137.398 44.2415V431.638C137.398 444.307 147.668 454.577 160.337 454.577H343.835C356.504 454.577 366.774 444.307 366.774 431.638V44.2415C366.774 31.5728 356.504 21.3027 343.835 21.3027Z" fill="#263238"/>
<path d="M356.573 68.8809H147.586V407H356.573V68.8809Z" fill="white" stroke="#263238" stroke-width="1.33739" stroke-miterlimit="10"/>
<path d="M284.471 206.148C302.356 188.263 302.356 159.264 284.471 141.379C266.585 123.493 237.587 123.493 219.701 141.379C201.816 159.264 201.815 188.263 219.701 206.148C237.587 224.034 266.585 224.034 284.471 206.148Z" fill="#C9D9FF" stroke="#316AFF"/>
<path d="M311.56 385.737H192.628C192.361 385.739 192.095 385.687 191.848 385.586C191.6 385.485 191.375 385.335 191.185 385.147C190.995 384.958 190.844 384.733 190.742 384.486C190.639 384.239 190.586 383.974 190.586 383.706C190.584 383.438 190.636 383.172 190.738 382.923C190.84 382.675 190.991 382.449 191.181 382.259C191.371 382.069 191.596 381.918 191.845 381.816C192.093 381.714 192.36 381.663 192.628 381.664H311.56C311.828 381.664 312.093 381.717 312.34 381.82C312.587 381.923 312.812 382.073 313 382.263C313.189 382.453 313.338 382.678 313.44 382.926C313.541 383.174 313.593 383.439 313.591 383.706C313.591 384.245 313.377 384.762 312.996 385.142C312.615 385.523 312.099 385.737 311.56 385.737Z" fill="#316AFF"/>
<path d="M315.43 244.527H188.742C186.127 244.527 184.008 246.647 184.008 249.261V264.196C184.008 266.81 186.127 268.93 188.742 268.93H315.43C318.045 268.93 320.165 266.81 320.165 264.196V249.261C320.165 246.647 318.045 244.527 315.43 244.527Z" fill="#C9D9FF"/>
<path d="M315.43 290.168H188.742C186.127 290.168 184.008 292.287 184.008 294.902V309.837C184.008 312.451 186.127 314.571 188.742 314.571H315.43C318.045 314.571 320.165 312.451 320.165 309.837V294.902C320.165 292.287 318.045 290.168 315.43 290.168Z" fill="#C9D9FF"/>
<path d="M274.64 196.359L261.311 188.685V182.345C263.241 180.01 264.639 177.283 265.408 174.353C265.867 174.515 266.35 174.599 266.836 174.6C268.489 174.6 269.54 169.477 269.717 165.817C271.641 161.744 269.021 159.359 269.021 159.359C269.021 159.359 270.107 158.273 270.827 153.917C271.547 149.56 268.289 151.378 265.75 147.388C263.212 143.398 261.394 139.053 253.059 139.053C250.762 138.978 248.496 139.595 246.555 140.824C244.614 142.054 243.087 143.839 242.174 145.948C240.099 145.955 238.032 146.197 236.011 146.668C233.461 147.388 232.741 155.735 234.913 159.005C235.886 160.792 236.405 162.791 236.425 164.825C235.846 164.117 235.244 163.928 234.913 165.534C234.193 169.158 237.098 174.234 237.098 174.234L238.597 173.809C239.352 176.941 240.81 179.86 242.859 182.345V188.685L229.53 196.359C227.973 197.257 226.681 198.55 225.781 200.106C224.882 201.662 224.408 203.427 224.406 205.225V209.617C232.334 215.74 242.068 219.063 252.085 219.063C262.102 219.063 271.837 215.74 279.764 209.617V205.225C279.765 203.427 279.292 201.661 278.392 200.104C277.492 198.547 276.198 197.255 274.64 196.359Z" fill="white"/>
<path d="M201.249 308.503C200.944 308.498 200.652 308.376 200.435 308.16C200.319 308.057 200.226 307.929 200.163 307.787C200.1 307.644 200.068 307.49 200.069 307.334C200.072 307.121 200.134 306.913 200.246 306.732L202.371 303.332L198.227 303.462C198.071 303.472 197.914 303.448 197.768 303.393C197.621 303.338 197.488 303.253 197.377 303.143C197.184 302.927 197.078 302.647 197.078 302.358C197.078 302.068 197.184 301.789 197.377 301.573C197.486 301.459 197.618 301.37 197.765 301.313C197.912 301.256 198.07 301.232 198.227 301.242L202.312 301.396L200.21 298.007C200.096 297.823 200.035 297.611 200.033 297.394C200.032 297.238 200.064 297.083 200.127 296.941C200.19 296.798 200.283 296.671 200.399 296.567C200.616 296.352 200.908 296.229 201.214 296.225C201.415 296.226 201.612 296.284 201.781 296.393C201.95 296.502 202.085 296.656 202.17 296.839L204.189 300.487L206.184 296.862C206.279 296.669 206.425 296.505 206.606 296.389C206.787 296.272 206.996 296.207 207.211 296.201C207.36 296.202 207.508 296.234 207.644 296.295C207.78 296.356 207.902 296.445 208.002 296.555C208.219 296.78 208.338 297.081 208.333 297.394C208.332 297.596 208.279 297.796 208.179 297.972L206.042 301.396L210.186 301.242C210.344 301.232 210.501 301.256 210.648 301.313C210.795 301.37 210.928 301.459 211.036 301.573C211.238 301.782 211.348 302.062 211.343 302.352C211.343 302.645 211.233 302.926 211.036 303.143C210.925 303.253 210.792 303.338 210.645 303.393C210.499 303.448 210.342 303.472 210.186 303.462L206.019 303.332L208.097 306.697C208.213 306.884 208.274 307.101 208.274 307.322C208.274 307.635 208.149 307.936 207.928 308.157C207.707 308.378 207.406 308.503 207.093 308.503C206.891 308.5 206.694 308.438 206.526 308.325C206.358 308.212 206.227 308.052 206.149 307.865L204.177 304.324L202.217 307.865C202.13 308.051 201.994 308.208 201.823 308.321C201.652 308.433 201.454 308.496 201.249 308.503Z" fill="#091228"/>
<path d="M220.407 308.503C220.102 308.499 219.81 308.376 219.593 308.161C219.477 308.057 219.384 307.929 219.321 307.787C219.258 307.644 219.226 307.49 219.227 307.334C219.23 307.121 219.292 306.913 219.404 306.732L221.529 303.332L217.397 303.462C217.239 303.469 217.082 303.444 216.934 303.39C216.786 303.335 216.65 303.251 216.535 303.143C216.378 302.981 216.274 302.776 216.235 302.554C216.197 302.333 216.226 302.104 216.319 301.899C216.412 301.694 216.564 301.522 216.757 301.405C216.949 301.288 217.172 301.231 217.397 301.242L221.47 301.396L219.368 298.007C219.254 297.823 219.193 297.611 219.191 297.394C219.19 297.238 219.222 297.083 219.285 296.941C219.348 296.798 219.441 296.671 219.557 296.567C219.774 296.352 220.066 296.229 220.372 296.225C220.573 296.226 220.77 296.285 220.939 296.393C221.108 296.502 221.243 296.656 221.328 296.839L223.347 300.487L225.342 296.862C225.437 296.669 225.583 296.505 225.764 296.389C225.945 296.272 226.154 296.207 226.369 296.201C226.519 296.201 226.667 296.232 226.803 296.293C226.939 296.354 227.061 296.443 227.16 296.555C227.27 296.666 227.356 296.797 227.415 296.94C227.474 297.084 227.504 297.238 227.503 297.394C227.498 297.597 227.441 297.797 227.337 297.972L225.2 301.396L229.356 301.266C229.512 301.255 229.667 301.28 229.812 301.337C229.957 301.394 230.088 301.483 230.194 301.596C230.396 301.805 230.506 302.086 230.501 302.376C230.501 302.668 230.391 302.95 230.194 303.167C230.085 303.276 229.954 303.362 229.81 303.417C229.665 303.472 229.51 303.495 229.356 303.485L225.177 303.356L227.255 306.72C227.371 306.908 227.432 307.125 227.432 307.346C227.432 307.659 227.307 307.959 227.086 308.181C226.865 308.402 226.564 308.526 226.251 308.526C226.049 308.524 225.852 308.462 225.684 308.349C225.516 308.235 225.385 308.076 225.307 307.889L223.335 304.347L221.375 307.889C221.285 308.07 221.147 308.222 220.977 308.331C220.806 308.439 220.609 308.498 220.407 308.503Z" fill="#091228"/>
<path d="M239.564 308.503C239.254 308.502 238.957 308.379 238.737 308.161C238.621 308.057 238.528 307.929 238.465 307.787C238.402 307.644 238.37 307.49 238.371 307.334C238.375 307.121 238.436 306.913 238.548 306.732L240.673 303.332L236.541 303.462C236.319 303.471 236.099 303.413 235.909 303.296C235.719 303.18 235.569 303.009 235.476 302.807C235.384 302.604 235.354 302.379 235.39 302.159C235.426 301.939 235.527 301.735 235.679 301.573C235.791 301.459 235.926 301.371 236.074 301.314C236.223 301.257 236.382 301.232 236.541 301.242L240.614 301.396L238.513 298.007C238.399 297.823 238.337 297.611 238.336 297.394C238.34 297.239 238.374 297.086 238.437 296.944C238.499 296.802 238.589 296.674 238.702 296.567C238.922 296.349 239.218 296.226 239.528 296.225C239.727 296.228 239.921 296.288 240.088 296.396C240.255 296.505 240.389 296.658 240.473 296.839L242.491 300.487L244.487 296.862C244.581 296.669 244.727 296.505 244.908 296.389C245.089 296.272 245.299 296.207 245.514 296.201C245.663 296.201 245.811 296.232 245.947 296.293C246.084 296.354 246.206 296.443 246.305 296.555C246.414 296.666 246.501 296.797 246.559 296.94C246.618 297.084 246.648 297.238 246.647 297.394C246.643 297.597 246.586 297.797 246.482 297.972L244.345 301.396L248.501 301.242C248.653 301.227 248.808 301.245 248.953 301.294C249.098 301.343 249.232 301.423 249.343 301.528C249.455 301.634 249.543 301.762 249.602 301.904C249.66 302.046 249.687 302.199 249.681 302.352C249.684 302.643 249.579 302.925 249.386 303.143C249.275 303.253 249.142 303.338 248.995 303.393C248.849 303.448 248.692 303.472 248.536 303.462L244.369 303.332L246.435 306.697C246.551 306.884 246.612 307.101 246.612 307.322C246.608 307.477 246.574 307.63 246.511 307.772C246.448 307.914 246.358 308.042 246.246 308.149C246.143 308.259 246.019 308.348 245.881 308.408C245.743 308.469 245.594 308.502 245.443 308.503C245.242 308.499 245.047 308.437 244.881 308.324C244.715 308.211 244.586 308.051 244.51 307.865L242.527 304.324L240.567 307.865C240.479 308.057 240.337 308.219 240.159 308.332C239.981 308.445 239.774 308.504 239.564 308.503Z" fill="#091228"/>
<path d="M258.714 308.503C258.405 308.502 258.108 308.379 257.888 308.161C257.665 307.943 257.538 307.646 257.534 307.334C257.53 307.122 257.587 306.913 257.699 306.732L259.824 303.332L255.692 303.462C255.534 303.469 255.377 303.444 255.229 303.39C255.081 303.335 254.945 303.251 254.83 303.143C254.638 302.927 254.531 302.647 254.531 302.358C254.531 302.068 254.638 301.789 254.83 301.573C254.944 301.463 255.079 301.377 255.227 301.32C255.375 301.263 255.533 301.237 255.692 301.242L259.777 301.396L257.687 298.007C257.573 297.823 257.512 297.611 257.51 297.394C257.514 297.239 257.548 297.086 257.611 296.944C257.674 296.802 257.764 296.674 257.876 296.567C258.096 296.349 258.393 296.226 258.702 296.225C258.904 296.226 259.1 296.285 259.27 296.393C259.439 296.502 259.574 296.656 259.659 296.839L261.666 300.487L263.661 296.862C263.756 296.669 263.901 296.505 264.082 296.389C264.263 296.272 264.473 296.207 264.688 296.201C264.837 296.201 264.985 296.232 265.122 296.293C265.258 296.354 265.38 296.443 265.479 296.555C265.588 296.666 265.675 296.797 265.734 296.94C265.792 297.084 265.822 297.238 265.821 297.394C265.817 297.597 265.76 297.797 265.656 297.972L263.519 301.396L267.675 301.242C267.828 301.227 267.982 301.245 268.127 301.294C268.273 301.343 268.406 301.423 268.518 301.528C268.63 301.634 268.718 301.762 268.776 301.904C268.834 302.046 268.861 302.199 268.855 302.352C268.858 302.643 268.753 302.925 268.56 303.143C268.449 303.253 268.316 303.338 268.169 303.393C268.023 303.448 267.866 303.472 267.71 303.462L263.543 303.332L265.609 306.697C265.725 306.884 265.787 307.101 265.786 307.322C265.787 307.478 265.755 307.632 265.692 307.775C265.629 307.917 265.536 308.045 265.42 308.149C265.317 308.259 265.193 308.348 265.055 308.408C264.917 308.469 264.768 308.502 264.617 308.503C264.416 308.499 264.221 308.437 264.055 308.324C263.89 308.211 263.761 308.051 263.684 307.865L261.701 304.324L259.741 307.865C259.651 308.06 259.506 308.225 259.323 308.338C259.141 308.452 258.929 308.509 258.714 308.503Z" fill="#091228"/>
<path d="M277.87 308.503C277.561 308.502 277.264 308.379 277.044 308.161C276.861 307.975 276.745 307.735 276.713 307.476C276.681 307.218 276.735 306.956 276.867 306.732L278.98 303.332L274.848 303.462C274.691 303.469 274.533 303.444 274.385 303.39C274.237 303.335 274.101 303.251 273.986 303.143C273.794 302.927 273.688 302.647 273.688 302.358C273.688 302.068 273.794 301.789 273.986 301.573C274.1 301.463 274.236 301.377 274.384 301.32C274.532 301.263 274.69 301.237 274.848 301.242L278.933 301.396L276.832 298.007C276.717 297.823 276.656 297.611 276.654 297.394C276.659 297.082 276.786 296.785 277.009 296.567C277.229 296.349 277.525 296.226 277.835 296.225C278.036 296.226 278.233 296.285 278.402 296.393C278.571 296.502 278.706 296.656 278.791 296.839L280.798 300.487L282.794 296.862C282.888 296.669 283.034 296.505 283.215 296.389C283.396 296.272 283.605 296.207 283.821 296.201C283.972 296.2 284.121 296.232 284.26 296.293C284.398 296.354 284.522 296.443 284.623 296.555C284.84 296.78 284.959 297.081 284.954 297.394C284.95 297.597 284.893 297.797 284.789 297.972L282.652 301.396L286.808 301.242C286.96 301.227 287.115 301.245 287.26 301.294C287.405 301.343 287.538 301.423 287.65 301.528C287.762 301.634 287.85 301.762 287.909 301.904C287.967 302.046 287.994 302.199 287.988 302.352C287.991 302.643 287.885 302.925 287.693 303.143C287.582 303.253 287.449 303.338 287.302 303.393C287.156 303.448 286.999 303.472 286.843 303.462L282.675 303.332L284.741 306.697C284.858 306.884 284.919 307.101 284.919 307.322C284.92 307.478 284.888 307.632 284.825 307.775C284.761 307.917 284.669 308.045 284.553 308.149C284.45 308.259 284.326 308.348 284.188 308.408C284.05 308.469 283.901 308.502 283.75 308.503C283.549 308.499 283.354 308.437 283.188 308.324C283.022 308.211 282.893 308.051 282.817 307.865L280.834 304.324L278.874 307.865C278.786 308.057 278.644 308.219 278.466 308.332C278.288 308.445 278.081 308.504 277.87 308.503Z" fill="#091228"/>
<path d="M297.015 308.503C296.71 308.499 296.418 308.376 296.201 308.161C296.085 308.057 295.992 307.929 295.929 307.787C295.866 307.644 295.834 307.49 295.835 307.334C295.839 307.121 295.9 306.913 296.012 306.732L298.125 303.332L293.993 303.462C293.841 303.473 293.688 303.453 293.545 303.402C293.401 303.351 293.269 303.271 293.158 303.167C293.047 303.063 292.959 302.936 292.9 302.796C292.84 302.656 292.811 302.504 292.813 302.352C292.812 302.208 292.84 302.064 292.894 301.931C292.949 301.797 293.03 301.675 293.131 301.573C293.24 301.459 293.373 301.37 293.52 301.313C293.666 301.256 293.824 301.232 293.981 301.242L298.066 301.396L295.965 298.007C295.85 297.823 295.789 297.611 295.788 297.394C295.792 297.082 295.919 296.785 296.142 296.567C296.362 296.349 296.659 296.226 296.968 296.225C297.169 296.226 297.366 296.285 297.535 296.393C297.705 296.502 297.84 296.656 297.925 296.839L299.932 300.487L301.939 296.862C302.032 296.671 302.176 296.508 302.355 296.392C302.534 296.275 302.741 296.209 302.954 296.201C303.105 296.2 303.255 296.232 303.393 296.293C303.531 296.354 303.655 296.443 303.757 296.555C303.973 296.78 304.092 297.081 304.087 297.394C304.087 297.596 304.034 297.796 303.934 297.972L301.797 301.396L305.941 301.242C306.098 301.232 306.256 301.256 306.403 301.313C306.549 301.37 306.682 301.459 306.791 301.573C306.992 301.782 307.102 302.062 307.098 302.352C307.097 302.645 306.988 302.927 306.791 303.143C306.68 303.253 306.546 303.338 306.4 303.393C306.253 303.448 306.097 303.472 305.941 303.462L301.773 303.332L303.839 306.697C303.956 306.884 304.017 307.101 304.016 307.322C304.012 307.634 303.885 307.931 303.662 308.149C303.447 308.368 303.155 308.495 302.848 308.503C302.647 308.499 302.451 308.437 302.286 308.324C302.12 308.211 301.991 308.051 301.915 307.865L299.932 304.324L297.972 307.865C297.887 308.05 297.752 308.207 297.584 308.319C297.415 308.432 297.218 308.495 297.015 308.503Z" fill="#091228"/>
<g style="mix-blend-mode:multiply">
<path d="M356.573 69.3281H147.586V82.4208H356.573V69.3281Z" fill="#316AFF"/>
</g>
<path d="M274.803 45.2097H229.351C228.531 45.2097 227.744 44.8838 227.164 44.3037C226.584 43.7237 226.258 42.9369 226.258 42.1166C226.258 41.2962 226.584 40.5095 227.164 39.9294C227.744 39.3493 228.531 39.0234 229.351 39.0234H274.803C275.624 39.0234 276.411 39.3493 276.991 39.9294C277.571 40.5095 277.897 41.2962 277.897 42.1166C277.897 42.9369 277.571 43.7237 276.991 44.3037C276.411 44.8838 275.624 45.2097 274.803 45.2097Z" fill="#316AFF" stroke="#263238" stroke-width="1.33739" stroke-linecap="round" stroke-linejoin="round"/>
<path d="M264.48 426.101C264.482 423.649 263.757 421.25 262.396 419.21C261.034 417.17 259.098 415.579 256.833 414.639C254.567 413.7 252.074 413.453 249.668 413.931C247.262 414.409 245.053 415.59 243.318 417.324C241.584 419.058 240.403 421.268 239.925 423.674C239.447 426.08 239.694 428.573 240.633 430.839C241.573 433.104 243.164 435.04 245.204 436.401C247.244 437.763 249.643 438.488 252.095 438.486C255.379 438.483 258.527 437.177 260.849 434.855C263.171 432.533 264.477 429.385 264.48 426.101Z" fill="#316AFF"/>
<path d="M255.374 419.82H248.812C247.156 419.82 245.812 421.163 245.812 422.82V429.382C245.812 431.039 247.156 432.382 248.812 432.382H255.374C257.031 432.382 258.374 431.039 258.374 429.382V422.82C258.374 421.163 257.031 419.82 255.374 419.82Z" fill="#316AFF" stroke="white" stroke-width="1.33739" stroke-linecap="round" stroke-linejoin="round"/>
<path d="M401.721 283.557C401.721 283.557 385.263 241.741 399.915 236.771C415.168 231.588 414.495 259.202 413.904 272.66C412.665 301.419 409.489 306.767 407.116 299.743L401.721 283.557ZM396.774 316.177C401.296 322.08 402.571 315.964 394.413 288.35C390.588 275.364 382.277 249.096 369.526 258.954C357.284 268.398 386.42 302.635 386.42 302.635L396.774 316.177ZM388.038 340.143C392.347 343.968 392.43 339.139 382.194 319.199C377.389 309.861 367.224 290.959 358.901 300.31C350.909 309.329 378.145 331.253 378.145 331.253L388.038 340.143ZM378.593 368.642C382.902 372.479 382.985 367.638 372.749 347.71C367.944 338.372 357.78 319.459 349.456 328.821C341.511 337.864 368.664 359.787 368.664 359.787L378.593 368.642ZM405.865 310.628C398.97 313.32 404.448 316.248 433.242 316.165C446.748 316.165 474.327 315.551 468.447 300.546C462.816 286.131 421.803 304.489 421.803 304.489L405.865 310.628ZM398.014 329.801C390.718 331.064 395.511 335.031 423.751 340.674C436.985 343.33 464.127 348.23 461.352 332.41C458.696 317.157 414.849 327.003 414.849 327.003L398.014 329.801ZM389.23 353.212C383.02 354.109 386.987 357.568 410.729 362.999C421.862 365.549 444.706 370.33 442.723 356.836C440.834 343.85 403.527 351.193 403.527 351.193L389.23 353.212ZM382.56 374.899C376.48 376.445 380.789 379.468 404.991 382.348C416.325 383.694 439.547 386.032 436.158 372.821C432.888 360.142 396.574 371.369 396.574 371.369L382.56 374.899ZM418.143 287.099C414.601 295.032 421.956 293.828 446.961 272.011C458.672 261.775 482.166 240.36 463.56 229.699C445.698 219.451 426.49 268.894 426.49 268.894L418.143 287.099ZM383.481 403.15C379.738 405.334 383.41 406.184 400.576 402.761C408.627 401.167 425.002 397.625 419.465 390.636C414.105 383.907 392.146 398.074 392.146 398.074L383.481 403.15Z" fill="#316AFF"/>
<path opacity="0.3" d="M401.721 283.557C401.721 283.557 385.263 241.741 399.915 236.771C415.168 231.588 414.495 259.202 413.904 272.66C412.665 301.419 409.489 306.767 407.116 299.743L401.721 283.557ZM396.774 316.177C401.296 322.08 402.571 315.964 394.413 288.35C390.588 275.364 382.277 249.096 369.526 258.954C357.284 268.398 386.42 302.635 386.42 302.635L396.774 316.177ZM388.038 340.143C392.347 343.968 392.43 339.139 382.194 319.199C377.389 309.861 367.224 290.959 358.901 300.31C350.909 309.329 378.145 331.253 378.145 331.253L388.038 340.143ZM378.593 368.642C382.902 372.479 382.985 367.638 372.749 347.71C367.944 338.372 357.78 319.459 349.456 328.821C341.511 337.864 368.664 359.787 368.664 359.787L378.593 368.642ZM405.865 310.628C398.97 313.32 404.448 316.248 433.242 316.165C446.748 316.165 474.327 315.551 468.447 300.546C462.816 286.131 421.803 304.489 421.803 304.489L405.865 310.628ZM398.014 329.801C390.718 331.064 395.511 335.031 423.751 340.674C436.985 343.33 464.127 348.23 461.352 332.41C458.696 317.157 414.849 327.003 414.849 327.003L398.014 329.801ZM389.23 353.212C383.02 354.109 386.987 357.568 410.729 362.999C421.862 365.549 444.706 370.33 442.723 356.836C440.834 343.85 403.527 351.193 403.527 351.193L389.23 353.212ZM382.56 374.899C376.48 376.445 380.789 379.468 404.991 382.348C416.325 383.694 439.547 386.032 436.158 372.821C432.888 360.142 396.574 371.369 396.574 371.369L382.56 374.899ZM418.143 287.099C414.601 295.032 421.956 293.828 446.961 272.011C458.672 261.775 482.166 240.36 463.56 229.699C445.698 219.451 426.49 268.894 426.49 268.894L418.143 287.099ZM383.481 403.15C379.738 405.334 383.41 406.184 400.576 402.761C408.627 401.167 425.002 397.625 419.465 390.636C414.105 383.907 392.146 398.074 392.146 398.074L383.481 403.15Z" fill="white"/>
<path d="M408.981 303.025L406.112 255.294L408.981 303.025ZM399.902 318.774L381.769 277.725L399.902 318.774ZM446.701 306.838L403.243 313.072L446.701 306.838ZM390.505 340.898L366.976 310.71L390.505 340.898ZM394.637 331.642L427.056 333.271L394.637 331.642ZM386.963 354.793L411.755 357.249L386.963 354.793ZM380.978 369.504L368.664 350.98L380.978 369.504ZM379.561 376.044L408.71 376.316L379.561 376.044ZM373.658 430.729C373.853 430.714 374.035 430.622 374.163 430.474C374.291 430.326 374.356 430.133 374.343 429.938C372.489 402.099 383.256 356.505 400.528 319.081C411.567 295.162 454.835 248.151 455.295 247.679C455.435 247.54 455.513 247.351 455.513 247.154C455.513 246.957 455.435 246.768 455.295 246.628C455.227 246.56 455.146 246.505 455.057 246.468C454.968 246.431 454.873 246.412 454.776 246.412C454.679 246.412 454.584 246.431 454.495 246.468C454.405 246.505 454.325 246.56 454.257 246.628C453.82 247.101 410.374 294.289 399.241 318.42C381.651 356.753 371.025 401.521 372.914 430.032C372.929 430.22 373.013 430.396 373.151 430.525C373.289 430.653 373.47 430.726 373.658 430.729ZM408.969 303.757C409.165 303.745 409.347 303.656 409.478 303.51C409.608 303.364 409.676 303.173 409.666 302.978L406.844 255.223C406.84 255.126 406.816 255.03 406.774 254.943C406.732 254.855 406.673 254.776 406.601 254.711C406.528 254.646 406.444 254.597 406.352 254.565C406.26 254.533 406.162 254.52 406.065 254.526C405.87 254.539 405.687 254.627 405.557 254.773C405.427 254.919 405.359 255.11 405.369 255.306L408.237 303.037C408.246 303.225 408.328 303.402 408.464 303.531C408.6 303.661 408.781 303.733 408.969 303.733V303.757ZM400.162 319.447C400.339 319.367 400.478 319.221 400.548 319.04C400.619 318.859 400.616 318.657 400.54 318.479L382.394 277.43C382.316 277.251 382.17 277.111 381.989 277.04C381.807 276.97 381.605 276.974 381.426 277.052C381.248 277.13 381.108 277.276 381.037 277.458C380.966 277.639 380.97 277.842 381.048 278.02L399.182 319.069C399.239 319.201 399.333 319.313 399.452 319.393C399.572 319.472 399.712 319.516 399.855 319.518C399.977 319.524 400.099 319.5 400.209 319.447H400.162ZM403.302 313.78L446.736 307.57C446.841 307.568 446.944 307.544 447.039 307.499C447.134 307.454 447.218 307.389 447.286 307.31C447.354 307.23 447.405 307.137 447.434 307.036C447.464 306.935 447.472 306.829 447.458 306.726C447.443 306.622 447.407 306.522 447.352 306.433C447.296 306.344 447.223 306.268 447.135 306.209C447.048 306.151 446.95 306.111 446.846 306.093C446.743 306.076 446.637 306.08 446.535 306.106L403.102 312.316C402.908 312.329 402.726 312.418 402.598 312.564C402.47 312.71 402.405 312.901 402.417 313.095C402.43 313.289 402.519 313.471 402.665 313.599C402.811 313.727 403.002 313.793 403.196 313.78H403.302ZM390.918 341.488C391.072 341.367 391.173 341.19 391.197 340.996C391.221 340.801 391.168 340.605 391.048 340.449L367.507 310.203C367.387 310.046 367.209 309.944 367.013 309.919C366.817 309.893 366.619 309.946 366.462 310.067C366.306 310.188 366.204 310.365 366.178 310.561C366.153 310.757 366.206 310.955 366.327 311.112L389.915 341.406C389.983 341.494 390.071 341.565 390.171 341.614C390.271 341.663 390.382 341.689 390.493 341.689C390.669 341.68 390.837 341.609 390.965 341.488H390.918ZM427.705 333.307C427.712 333.112 427.641 332.922 427.508 332.778C427.376 332.634 427.192 332.549 426.997 332.539L394.637 330.898C394.455 330.911 394.284 330.99 394.157 331.12C394.029 331.25 393.954 331.423 393.945 331.605C393.936 331.787 393.995 331.966 394.109 332.108C394.224 332.249 394.386 332.344 394.566 332.374L426.985 334.015C427.18 334.022 427.37 333.951 427.514 333.818C427.658 333.686 427.743 333.502 427.752 333.307H427.705ZM412.44 357.32C412.452 357.223 412.444 357.124 412.416 357.03C412.389 356.937 412.343 356.849 412.282 356.773C412.22 356.697 412.144 356.634 412.057 356.588C411.971 356.542 411.876 356.514 411.779 356.505L386.987 354.062C386.891 354.052 386.793 354.061 386.701 354.089C386.608 354.117 386.522 354.163 386.448 354.225C386.373 354.286 386.311 354.362 386.266 354.447C386.221 354.533 386.193 354.626 386.184 354.723C386.167 354.916 386.227 355.109 386.351 355.259C386.475 355.409 386.652 355.505 386.845 355.525L411.637 357.981H411.708C411.899 357.994 412.087 357.932 412.232 357.809C412.378 357.685 412.469 357.51 412.487 357.32H412.44ZM381.332 370.117C381.496 370.009 381.61 369.84 381.65 369.648C381.69 369.455 381.652 369.255 381.544 369.09L369.29 350.567C369.178 350.407 369.008 350.297 368.817 350.26C368.625 350.223 368.427 350.261 368.263 350.366C368.099 350.475 367.984 350.644 367.945 350.836C367.905 351.028 367.943 351.229 368.05 351.393L380.305 369.917C380.375 370.018 380.468 370.101 380.577 370.158C380.686 370.216 380.807 370.246 380.93 370.247C381.09 370.256 381.248 370.21 381.379 370.117H381.332ZM409.453 376.316C409.45 376.121 409.373 375.935 409.236 375.797C409.1 375.658 408.916 375.578 408.721 375.572L379.573 375.3C379.379 375.3 379.192 375.377 379.055 375.515C378.918 375.652 378.841 375.838 378.841 376.032C378.838 376.13 378.854 376.227 378.89 376.318C378.925 376.409 378.979 376.491 379.047 376.561C379.116 376.631 379.198 376.686 379.288 376.722C379.378 376.759 379.475 376.778 379.573 376.776L408.721 377.047C408.821 377.052 408.921 377.037 409.014 377.002C409.108 376.968 409.193 376.915 409.266 376.847C409.339 376.778 409.397 376.696 409.437 376.605C409.478 376.514 409.499 376.415 409.501 376.316H409.453ZM370.341 419.903C370.4 419.773 375.37 406.078 390.316 402.808C390.509 402.765 390.676 402.648 390.783 402.482C390.889 402.316 390.925 402.115 390.883 401.922C390.835 401.734 390.716 401.571 390.551 401.467C390.386 401.364 390.188 401.328 389.997 401.368C374.237 404.815 369.007 419.277 368.947 419.419C368.887 419.605 368.901 419.808 368.987 419.984C369.073 420.16 369.224 420.296 369.408 420.363H369.644C369.801 420.377 369.958 420.339 370.092 420.256C370.226 420.173 370.33 420.049 370.388 419.903H370.341ZM373.658 430.729C373.853 430.714 374.035 430.622 374.163 430.474C374.291 430.326 374.356 430.133 374.343 429.938C372.489 402.099 383.256 356.505 400.528 319.081C411.567 295.162 454.835 248.151 455.295 247.679C455.435 247.54 455.513 247.351 455.513 247.154C455.513 246.957 455.435 246.768 455.295 246.628C455.227 246.56 455.146 246.505 455.057 246.468C454.968 246.431 454.873 246.412 454.776 246.412C454.679 246.412 454.584 246.431 454.495 246.468C454.405 246.505 454.325 246.56 454.257 246.628C453.82 247.101 410.374 294.289 399.241 318.42C381.651 356.753 371.025 401.521 372.914 430.032C372.929 430.22 373.013 430.396 373.151 430.525C373.289 430.653 373.47 430.726 373.658 430.729ZM408.969 303.757C409.165 303.745 409.347 303.656 409.478 303.51C409.608 303.364 409.676 303.173 409.666 302.978L406.844 255.223C406.84 255.126 406.816 255.03 406.774 254.943C406.732 254.855 406.673 254.776 406.601 254.711C406.528 254.646 406.444 254.597 406.352 254.565C406.26 254.533 406.162 254.52 406.065 254.526C405.87 254.539 405.687 254.627 405.557 254.773C405.427 254.919 405.359 255.11 405.369 255.306L408.237 303.037C408.246 303.225 408.328 303.402 408.464 303.531C408.6 303.661 408.781 303.733 408.969 303.733V303.757ZM400.162 319.447C400.339 319.367 400.478 319.221 400.548 319.04C400.619 318.859 400.616 318.657 400.54 318.479L382.394 277.43C382.316 277.251 382.17 277.111 381.989 277.04C381.807 276.97 381.605 276.974 381.426 277.052C381.248 277.13 381.108 277.276 381.037 277.458C380.966 277.639 380.97 277.842 381.048 278.02L399.182 319.069C399.239 319.201 399.333 319.313 399.452 319.393C399.572 319.472 399.712 319.516 399.855 319.518C399.977 319.524 400.099 319.5 400.209 319.447H400.162ZM403.302 313.78L446.736 307.57C446.841 307.568 446.944 307.544 447.039 307.499C447.134 307.454 447.218 307.389 447.286 307.31C447.354 307.23 447.405 307.137 447.434 307.036C447.464 306.935 447.472 306.829 447.458 306.726C447.443 306.622 447.407 306.522 447.352 306.433C447.296 306.344 447.223 306.268 447.135 306.209C447.048 306.151 446.95 306.111 446.846 306.093C446.743 306.076 446.637 306.08 446.535 306.106L403.102 312.316C402.908 312.329 402.726 312.418 402.598 312.564C402.47 312.71 402.405 312.901 402.417 313.095C402.43 313.289 402.519 313.471 402.665 313.599C402.811 313.727 403.002 313.793 403.196 313.78H403.302ZM390.918 341.488C391.072 341.367 391.173 341.19 391.197 340.996C391.221 340.801 391.168 340.605 391.048 340.449L367.507 310.203C367.447 310.125 367.373 310.06 367.288 310.012C367.203 309.963 367.11 309.931 367.013 309.919C366.916 309.906 366.817 309.913 366.723 309.938C366.628 309.964 366.54 310.007 366.462 310.067C366.385 310.127 366.32 310.201 366.271 310.286C366.222 310.371 366.191 310.464 366.178 310.561C366.165 310.658 366.172 310.757 366.198 310.851C366.223 310.946 366.267 311.034 366.327 311.112L389.915 341.406C389.983 341.494 390.071 341.565 390.171 341.614C390.271 341.663 390.382 341.689 390.493 341.689C390.669 341.68 390.837 341.609 390.965 341.488H390.918ZM427.705 333.307C427.712 333.112 427.641 332.922 427.508 332.778C427.376 332.634 427.192 332.549 426.997 332.539L394.637 330.898C394.455 330.911 394.284 330.99 394.157 331.12C394.029 331.25 393.954 331.423 393.945 331.605C393.936 331.787 393.995 331.966 394.109 332.108C394.224 332.249 394.386 332.344 394.566 332.374L426.985 334.015C427.18 334.022 427.37 333.951 427.514 333.818C427.658 333.686 427.743 333.502 427.752 333.307H427.705ZM412.44 357.32C412.452 357.223 412.444 357.124 412.416 357.03C412.389 356.937 412.343 356.849 412.282 356.773C412.22 356.697 412.144 356.634 412.057 356.588C411.971 356.542 411.876 356.514 411.779 356.505L386.987 354.062C386.891 354.052 386.793 354.061 386.701 354.089C386.608 354.117 386.522 354.163 386.448 354.225C386.373 354.286 386.311 354.362 386.266 354.447C386.221 354.533 386.193 354.626 386.184 354.723C386.167 354.916 386.227 355.109 386.351 355.259C386.475 355.409 386.652 355.505 386.845 355.525L411.637 357.981H411.708C411.899 357.994 412.087 357.932 412.232 357.809C412.378 357.685 412.469 357.51 412.487 357.32H412.44ZM381.332 370.117C381.496 370.009 381.61 369.84 381.65 369.648C381.69 369.455 381.652 369.255 381.544 369.09L369.29 350.567C369.178 350.407 369.008 350.297 368.817 350.26C368.625 350.223 368.427 350.261 368.263 350.366C368.099 350.475 367.984 350.644 367.945 350.836C367.905 351.028 367.943 351.229 368.05 351.393L380.305 369.917C380.375 370.018 380.468 370.101 380.577 370.158C380.686 370.216 380.807 370.246 380.93 370.247C381.09 370.256 381.248 370.21 381.379 370.117H381.332ZM409.453 376.316C409.45 376.121 409.373 375.935 409.236 375.797C409.1 375.658 408.916 375.578 408.721 375.572L379.573 375.3C379.379 375.3 379.192 375.377 379.055 375.515C378.918 375.652 378.841 375.838 378.841 376.032C378.838 376.13 378.854 376.227 378.89 376.318C378.925 376.409 378.979 376.491 379.047 376.561C379.116 376.631 379.198 376.686 379.288 376.722C379.378 376.759 379.475 376.778 379.573 376.776L408.721 377.047C408.821 377.052 408.921 377.037 409.014 377.002C409.108 376.968 409.193 376.915 409.266 376.847C409.339 376.778 409.397 376.696 409.437 376.605C409.478 376.514 409.499 376.415 409.501 376.316H409.453ZM370.341 419.903C370.4 419.773 375.37 406.078 390.316 402.808C390.509 402.765 390.676 402.648 390.783 402.482C390.889 402.316 390.925 402.115 390.883 401.922C390.835 401.734 390.716 401.571 390.551 401.467C390.386 401.364 390.188 401.328 389.997 401.368C374.237 404.815 369.007 419.277 368.947 419.419C368.887 419.605 368.901 419.808 368.987 419.984C369.073 420.16 369.224 420.296 369.408 420.363H369.644C369.801 420.377 369.958 420.339 370.092 420.256C370.226 420.173 370.33 420.049 370.388 419.903H370.341Z" fill="#316AFF"/>
<path opacity="0.2" d="M408.981 303.025L406.112 255.294L408.981 303.025ZM399.902 318.774L381.769 277.725L399.902 318.774ZM446.701 306.838L403.243 313.072L446.701 306.838ZM390.505 340.898L366.976 310.71L390.505 340.898ZM394.637 331.642L427.056 333.271L394.637 331.642ZM386.963 354.793L411.755 357.249L386.963 354.793ZM380.978 369.504L368.664 350.98L380.978 369.504ZM379.561 376.044L408.71 376.316L379.561 376.044ZM373.658 430.729C373.853 430.714 374.035 430.622 374.163 430.474C374.291 430.326 374.356 430.133 374.343 429.938C372.489 402.099 383.256 356.505 400.528 319.081C411.567 295.162 454.835 248.151 455.295 247.679C455.435 247.54 455.513 247.351 455.513 247.154C455.513 246.957 455.435 246.768 455.295 246.628C455.227 246.56 455.146 246.505 455.057 246.468C454.968 246.431 454.873 246.412 454.776 246.412C454.679 246.412 454.584 246.431 454.495 246.468C454.405 246.505 454.325 246.56 454.257 246.628C453.82 247.101 410.374 294.289 399.241 318.42C381.651 356.753 371.025 401.521 372.914 430.032C372.929 430.22 373.013 430.396 373.151 430.525C373.289 430.653 373.47 430.726 373.658 430.729ZM408.969 303.757C409.165 303.745 409.347 303.656 409.478 303.51C409.608 303.364 409.676 303.173 409.666 302.978L406.844 255.223C406.84 255.126 406.816 255.03 406.774 254.943C406.732 254.855 406.673 254.776 406.601 254.711C406.528 254.646 406.444 254.597 406.352 254.565C406.26 254.533 406.162 254.52 406.065 254.526C405.87 254.539 405.687 254.627 405.557 254.773C405.427 254.919 405.359 255.11 405.369 255.306L408.237 303.037C408.246 303.225 408.328 303.402 408.464 303.531C408.6 303.661 408.781 303.733 408.969 303.733V303.757ZM400.162 319.447C400.339 319.367 400.478 319.221 400.548 319.04C400.619 318.859 400.616 318.657 400.54 318.479L382.394 277.43C382.316 277.251 382.17 277.111 381.989 277.04C381.807 276.97 381.605 276.974 381.426 277.052C381.248 277.13 381.108 277.276 381.037 277.458C380.966 277.639 380.97 277.842 381.048 278.02L399.182 319.069C399.239 319.201 399.333 319.313 399.452 319.393C399.572 319.472 399.712 319.516 399.855 319.518C399.977 319.524 400.099 319.5 400.209 319.447H400.162ZM403.302 313.78L446.736 307.57C446.841 307.568 446.944 307.544 447.039 307.499C447.134 307.454 447.218 307.389 447.286 307.31C447.354 307.23 447.405 307.137 447.434 307.036C447.464 306.935 447.472 306.829 447.458 306.726C447.443 306.622 447.407 306.522 447.352 306.433C447.296 306.344 447.223 306.268 447.135 306.209C447.048 306.151 446.95 306.111 446.846 306.093C446.743 306.076 446.637 306.08 446.535 306.106L403.102 312.316C402.908 312.329 402.726 312.418 402.598 312.564C402.47 312.71 402.405 312.901 402.417 313.095C402.43 313.289 402.519 313.471 402.665 313.599C402.811 313.727 403.002 313.793 403.196 313.78H403.302ZM390.918 341.488C391.072 341.367 391.173 341.19 391.197 340.996C391.221 340.801 391.168 340.605 391.048 340.449L367.507 310.203C367.387 310.046 367.209 309.944 367.013 309.919C366.817 309.893 366.619 309.946 366.462 310.067C366.306 310.188 366.204 310.365 366.178 310.561C366.153 310.757 366.206 310.955 366.327 311.112L389.915 341.406C389.983 341.494 390.071 341.565 390.171 341.614C390.271 341.663 390.382 341.689 390.493 341.689C390.669 341.68 390.837 341.609 390.965 341.488H390.918ZM427.705 333.307C427.712 333.112 427.641 332.922 427.508 332.778C427.376 332.634 427.192 332.549 426.997 332.539L394.637 330.898C394.455 330.911 394.284 330.99 394.157 331.12C394.029 331.25 393.954 331.423 393.945 331.605C393.936 331.787 393.995 331.966 394.109 332.108C394.224 332.249 394.386 332.344 394.566 332.374L426.985 334.015C427.18 334.022 427.37 333.951 427.514 333.818C427.658 333.686 427.743 333.502 427.752 333.307H427.705ZM412.44 357.32C412.452 357.223 412.444 357.124 412.416 357.03C412.389 356.937 412.343 356.849 412.282 356.773C412.22 356.697 412.144 356.634 412.057 356.588C411.971 356.542 411.876 356.514 411.779 356.505L386.987 354.062C386.891 354.052 386.793 354.061 386.701 354.089C386.608 354.117 386.522 354.163 386.448 354.225C386.373 354.286 386.311 354.362 386.266 354.447C386.221 354.533 386.193 354.626 386.184 354.723C386.167 354.916 386.227 355.109 386.351 355.259C386.475 355.409 386.652 355.505 386.845 355.525L411.637 357.981H411.708C411.899 357.994 412.087 357.932 412.232 357.809C412.378 357.685 412.469 357.51 412.487 357.32H412.44ZM381.332 370.117C381.496 370.009 381.61 369.84 381.65 369.648C381.69 369.455 381.652 369.255 381.544 369.09L369.29 350.567C369.178 350.407 369.008 350.297 368.817 350.26C368.625 350.223 368.427 350.261 368.263 350.366C368.099 350.475 367.984 350.644 367.945 350.836C367.905 351.028 367.943 351.229 368.05 351.393L380.305 369.917C380.375 370.018 380.468 370.101 380.577 370.158C380.686 370.216 380.807 370.246 380.93 370.247C381.09 370.256 381.248 370.21 381.379 370.117H381.332ZM409.453 376.316C409.45 376.121 409.373 375.935 409.236 375.797C409.1 375.658 408.916 375.578 408.721 375.572L379.573 375.3C379.379 375.3 379.192 375.377 379.055 375.515C378.918 375.652 378.841 375.838 378.841 376.032C378.838 376.13 378.854 376.227 378.89 376.318C378.925 376.409 378.979 376.491 379.047 376.561C379.116 376.631 379.198 376.686 379.288 376.722C379.378 376.759 379.475 376.778 379.573 376.776L408.721 377.047C408.821 377.052 408.921 377.037 409.014 377.002C409.108 376.968 409.193 376.915 409.266 376.847C409.339 376.778 409.397 376.696 409.437 376.605C409.478 376.514 409.499 376.415 409.501 376.316H409.453ZM370.341 419.903C370.4 419.773 375.37 406.078 390.316 402.808C390.509 402.765 390.676 402.648 390.783 402.482C390.889 402.316 390.925 402.115 390.883 401.922C390.835 401.734 390.716 401.571 390.551 401.467C390.386 401.364 390.188 401.328 389.997 401.368C374.237 404.815 369.007 419.277 368.947 419.419C368.887 419.605 368.901 419.808 368.987 419.984C369.073 420.16 369.224 420.296 369.408 420.363H369.644C369.801 420.377 369.958 420.339 370.092 420.256C370.226 420.173 370.33 420.049 370.388 419.903H370.341ZM373.658 430.729C373.853 430.714 374.035 430.622 374.163 430.474C374.291 430.326 374.356 430.133 374.343 429.938C372.489 402.099 383.256 356.505 400.528 319.081C411.567 295.162 454.835 248.151 455.295 247.679C455.435 247.54 455.513 247.351 455.513 247.154C455.513 246.957 455.435 246.768 455.295 246.628C455.227 246.56 455.146 246.505 455.057 246.468C454.968 246.431 454.873 246.412 454.776 246.412C454.679 246.412 454.584 246.431 454.495 246.468C454.405 246.505 454.325 246.56 454.257 246.628C453.82 247.101 410.374 294.289 399.241 318.42C381.651 356.753 371.025 401.521 372.914 430.032C372.929 430.22 373.013 430.396 373.151 430.525C373.289 430.653 373.47 430.726 373.658 430.729ZM408.969 303.757C409.165 303.745 409.347 303.656 409.478 303.51C409.608 303.364 409.676 303.173 409.666 302.978L406.844 255.223C406.84 255.126 406.816 255.03 406.774 254.943C406.732 254.855 406.673 254.776 406.601 254.711C406.528 254.646 406.444 254.597 406.352 254.565C406.26 254.533 406.162 254.52 406.065 254.526C405.87 254.539 405.687 254.627 405.557 254.773C405.427 254.919 405.359 255.11 405.369 255.306L408.237 303.037C408.246 303.225 408.328 303.402 408.464 303.531C408.6 303.661 408.781 303.733 408.969 303.733V303.757ZM400.162 319.447C400.339 319.367 400.478 319.221 400.548 319.04C400.619 318.859 400.616 318.657 400.54 318.479L382.394 277.43C382.316 277.251 382.17 277.111 381.989 277.04C381.807 276.97 381.605 276.974 381.426 277.052C381.248 277.13 381.108 277.276 381.037 277.458C380.966 277.639 380.97 277.842 381.048 278.02L399.182 319.069C399.239 319.201 399.333 319.313 399.452 319.393C399.572 319.472 399.712 319.516 399.855 319.518C399.977 319.524 400.099 319.5 400.209 319.447H400.162ZM403.302 313.78L446.736 307.57C446.841 307.568 446.944 307.544 447.039 307.499C447.134 307.454 447.218 307.389 447.286 307.31C447.354 307.23 447.405 307.137 447.434 307.036C447.464 306.935 447.472 306.829 447.458 306.726C447.443 306.622 447.407 306.522 447.352 306.433C447.296 306.344 447.223 306.268 447.135 306.209C447.048 306.151 446.95 306.111 446.846 306.093C446.743 306.076 446.637 306.08 446.535 306.106L403.102 312.316C402.908 312.329 402.726 312.418 402.598 312.564C402.47 312.71 402.405 312.901 402.417 313.095C402.43 313.289 402.519 313.471 402.665 313.599C402.811 313.727 403.002 313.793 403.196 313.78H403.302ZM390.918 341.488C391.072 341.367 391.173 341.19 391.197 340.996C391.221 340.801 391.168 340.605 391.048 340.449L367.507 310.203C367.447 310.125 367.373 310.06 367.288 310.012C367.203 309.963 367.11 309.931 367.013 309.919C366.916 309.906 366.817 309.913 366.723 309.938C366.628 309.964 366.54 310.007 366.462 310.067C366.385 310.127 366.32 310.201 366.271 310.286C366.222 310.371 366.191 310.464 366.178 310.561C366.165 310.658 366.172 310.757 366.198 310.851C366.223 310.946 366.267 311.034 366.327 311.112L389.915 341.406C389.983 341.494 390.071 341.565 390.171 341.614C390.271 341.663 390.382 341.689 390.493 341.689C390.669 341.68 390.837 341.609 390.965 341.488H390.918ZM427.705 333.307C427.712 333.112 427.641 332.922 427.508 332.778C427.376 332.634 427.192 332.549 426.997 332.539L394.637 330.898C394.455 330.911 394.284 330.99 394.157 331.12C394.029 331.25 393.954 331.423 393.945 331.605C393.936 331.787 393.995 331.966 394.109 332.108C394.224 332.249 394.386 332.344 394.566 332.374L426.985 334.015C427.18 334.022 427.37 333.951 427.514 333.818C427.658 333.686 427.743 333.502 427.752 333.307H427.705ZM412.44 357.32C412.452 357.223 412.444 357.124 412.416 357.03C412.389 356.937 412.343 356.849 412.282 356.773C412.22 356.697 412.144 356.634 412.057 356.588C411.971 356.542 411.876 356.514 411.779 356.505L386.987 354.062C386.891 354.052 386.793 354.061 386.701 354.089C386.608 354.117 386.522 354.163 386.448 354.225C386.373 354.286 386.311 354.362 386.266 354.447C386.221 354.533 386.193 354.626 386.184 354.723C386.167 354.916 386.227 355.109 386.351 355.259C386.475 355.409 386.652 355.505 386.845 355.525L411.637 357.981H411.708C411.899 357.994 412.087 357.932 412.232 357.809C412.378 357.685 412.469 357.51 412.487 357.32H412.44ZM381.332 370.117C381.496 370.009 381.61 369.84 381.65 369.648C381.69 369.455 381.652 369.255 381.544 369.09L369.29 350.567C369.178 350.407 369.008 350.297 368.817 350.26C368.625 350.223 368.427 350.261 368.263 350.366C368.099 350.475 367.984 350.644 367.945 350.836C367.905 351.028 367.943 351.229 368.05 351.393L380.305 369.917C380.375 370.018 380.468 370.101 380.577 370.158C380.686 370.216 380.807 370.246 380.93 370.247C381.09 370.256 381.248 370.21 381.379 370.117H381.332ZM409.453 376.316C409.45 376.121 409.373 375.935 409.236 375.797C409.1 375.658 408.916 375.578 408.721 375.572L379.573 375.3C379.379 375.3 379.192 375.377 379.055 375.515C378.918 375.652 378.841 375.838 378.841 376.032C378.838 376.13 378.854 376.227 378.89 376.318C378.925 376.409 378.979 376.491 379.047 376.561C379.116 376.631 379.198 376.686 379.288 376.722C379.378 376.759 379.475 376.778 379.573 376.776L408.721 377.047C408.821 377.052 408.921 377.037 409.014 377.002C409.108 376.968 409.193 376.915 409.266 376.847C409.339 376.778 409.397 376.696 409.437 376.605C409.478 376.514 409.499 376.415 409.501 376.316H409.453ZM370.341 419.903C370.4 419.773 375.37 406.078 390.316 402.808C390.509 402.765 390.676 402.648 390.783 402.482C390.889 402.316 390.925 402.115 390.883 401.922C390.835 401.734 390.716 401.571 390.551 401.467C390.386 401.364 390.188 401.328 389.997 401.368C374.237 404.815 369.007 419.277 368.947 419.419C368.887 419.605 368.901 419.808 368.987 419.984C369.073 420.16 369.224 420.296 369.408 420.363H369.644C369.801 420.377 369.958 420.339 370.092 420.256C370.226 420.173 370.33 420.049 370.388 419.903H370.341Z" fill="black"/>
<path d="M392.938 409.914H359.516V416.832H362.432L368.464 454.576H383.989L390.022 416.832H392.938V409.914Z" fill="#316AFF"/>
<path opacity="0.3" d="M392.938 409.914H359.516V416.832H362.432L368.464 454.576H383.989L390.022 416.832H392.938V409.914Z" fill="white"/>
<path d="M92.0271 200.718L53.1504 188.027L49.6913 178.889L41.7932 178.641L27.4609 175.926L29.1846 178.889L47.2239 191.982L51.6747 194.201L92.334 215.44L92.0271 200.718Z" fill="white" stroke="#263238" stroke-width="1.00396" stroke-miterlimit="10"/>
<path d="M49.6952 178.887L45.9882 176.668L38.5859 179.383L39.8137 180.859L49.6952 178.887Z" fill="white" stroke="#263238" stroke-width="1.00396" stroke-linejoin="round"/>
<path d="M92.0271 200.718L53.1504 188.027L49.6913 178.889L41.7932 178.641L27.4609 175.926L29.1846 178.889L47.2239 191.982L51.6747 194.201L92.334 215.44L92.0271 200.718Z" fill="white"/>
<mask id="mask0_383_20813" style="mask-type:luminance" maskUnits="userSpaceOnUse" x="27" y="175" width="66" height="41">
<path d="M92.0193 200.718L53.1426 188.027L49.6835 178.889L41.7854 178.641L27.4531 175.926L29.1768 178.889L47.2161 191.982L51.6669 194.201L92.3262 215.44L92.0193 200.718Z" fill="white"/>
</mask>
<g mask="url(#mask0_383_20813)">
<path opacity="0.5" d="M92.0193 200.718L53.1426 188.027L49.6835 178.889L41.7854 178.641L27.4531 175.926L29.1768 178.889L47.2161 191.982L51.6669 194.201L92.3262 215.44L92.0193 200.718Z" fill="#FFBE9D" stroke="#263238" stroke-width="1.00396" stroke-miterlimit="10"/>
</g>
<path d="M92.0271 200.718L53.1504 188.027L49.6913 178.889L41.7932 178.641L27.4609 175.926L29.1846 178.889L47.2239 191.982L51.6747 194.201L92.334 215.44L92.0271 200.718Z" stroke="#263238" stroke-width="1.00396" stroke-miterlimit="10"/>
<path d="M49.6952 178.887L45.9882 176.668L38.5859 179.383L39.8137 180.859L49.6952 178.887Z" fill="white"/>
<mask id="mask1_383_20813" style="mask-type:luminance" maskUnits="userSpaceOnUse" x="38" y="176" width="12" height="5">
<path d="M49.6952 178.887L45.9882 176.668L38.5859 179.383L39.8137 180.859L49.6952 178.887Z" fill="white"/>
</mask>
<g mask="url(#mask1_383_20813)">
<path opacity="0.5" d="M49.6952 178.887L45.9882 176.668L38.5859 179.383L39.8137 180.859L49.6952 178.887Z" fill="#316AFF" stroke="#263238" stroke-width="1.00396" stroke-linejoin="round"/>
</g>
<path d="M49.6952 178.887L45.9882 176.668L38.5859 179.383L39.8137 180.859L49.6952 178.887Z" fill="#FFBE9D" stroke="#263238" stroke-width="1.00396" stroke-linejoin="round"/>
<path d="M100.28 118.348C100.28 118.348 99.6775 123.661 101.177 127.073C102.676 130.484 110.999 142.042 110.999 142.042L95.4628 154.498C95.4628 154.498 89.0168 141.511 87.789 139.41C86.5612 137.308 85.0855 128.265 89.0877 121.784C93.0899 115.302 98.8511 113.555 100.28 118.348Z" fill="white"/>
<mask id="mask2_383_20813" style="mask-type:luminance" maskUnits="userSpaceOnUse" x="86" y="115" width="26" height="40">
<path d="M100.287 118.348C100.287 118.348 99.6853 123.661 101.185 127.073C102.684 130.484 111.007 142.042 111.007 142.042L95.4706 154.498C95.4706 154.498 89.0247 141.511 87.7969 139.41C86.569 137.308 85.0933 128.265 89.0955 121.784C93.0977 115.302 98.8589 113.555 100.287 118.348Z" fill="white"/>
</mask>
<g mask="url(#mask2_383_20813)">
<g style="mix-blend-mode:multiply" opacity="0.5">
<path d="M92.2963 135.418L99.0374 149.396L95.4484 154.508L88.6719 142.407L92.2963 135.418Z" fill="#FFBE9D"/>
</g>
</g>
<path d="M100.28 118.348C100.28 118.348 99.6775 123.661 101.177 127.073C102.676 130.484 110.999 142.042 110.999 142.042L95.4628 154.498C95.4628 154.498 89.0168 141.511 87.789 139.41C86.5612 137.308 85.0855 128.265 89.0877 121.784C93.0899 115.302 98.8511 113.555 100.28 118.348Z" stroke="#263238" stroke-width="1.00396" stroke-miterlimit="10"/>
<path d="M105.093 108.62C104.137 102.717 97.3718 90.7106 86.6403 91.1711C79.6749 91.478 76.4165 92.8829 73.3942 94.5948C70.9306 96.0462 68.6343 97.7645 66.5468 99.7185C61.305 106.011 59.4633 107.735 60.4786 112.551C60.3953 114.473 60.6963 116.391 61.364 118.195C62.9696 122.48 64.0675 125.278 65.4606 127.321C65.0356 129.316 63.9259 134.581 63.8669 135.785C63.8078 136.99 67.4086 136.151 69.2267 135.691C72.6032 143.247 78.7894 148.488 80.7138 149.091C84.0666 150.141 89.3675 144.628 92.1772 140.354C94.987 136.08 92.862 131.276 92.8738 129.363C92.8856 127.45 99.1899 123.248 101.527 121.913C103.865 120.579 106.037 114.511 105.093 108.62Z" fill="white"/>
<mask id="mask3_383_20813" style="mask-type:luminance" maskUnits="userSpaceOnUse" x="60" y="91" width="46" height="59">
<path d="M105.093 108.62C104.137 102.717 97.3718 90.7106 86.6403 91.1711C79.6749 91.478 76.4165 92.8829 73.3942 94.5948C70.9306 96.0462 68.6343 97.7645 66.5468 99.7185C61.305 106.011 59.4633 107.735 60.4786 112.551C60.3953 114.473 60.6963 116.391 61.364 118.195C62.9696 122.48 64.0675 125.278 65.4606 127.321C65.0356 129.316 63.9259 134.581 63.8669 135.785C63.8078 136.99 67.4086 136.151 69.2267 135.691C72.6032 143.247 78.7894 148.488 80.7138 149.091C84.0666 150.141 89.3675 144.628 92.1772 140.354C94.987 136.08 92.862 131.276 92.8738 129.363C92.8856 127.45 99.1899 123.248 101.527 121.913C103.865 120.579 106.037 114.511 105.093 108.62Z" fill="white"/>
</mask>
<g mask="url(#mask3_383_20813)">
<g style="mix-blend-mode:multiply" opacity="0.5">
<path d="M60.5333 112.55C60.45 114.472 60.751 116.39 61.4187 118.194C63.0243 122.479 64.1223 125.277 65.5154 127.319C65.0904 129.315 63.9806 134.58 63.9216 135.784C63.8626 136.988 67.4633 136.15 69.2814 135.69C72.6579 143.246 78.8442 148.487 80.7685 149.089C84.1214 150.14 89.4222 144.627 92.232 140.353C92.934 139.286 93.3897 138.076 93.566 136.811C93.4126 136.257 93.3063 135.914 93.3063 135.914C93.3063 135.914 91.7243 141.994 88.584 141.203C85.4436 140.412 80.6387 134.12 77.9587 131.947C75.2788 129.775 76.3767 126.918 75.8455 123.683C75.3142 120.448 67.3807 117.603 66.8494 115.75C66.3182 113.896 68.1717 106.222 68.1717 106.222C68.1717 106.222 71.1822 102.208 70.5329 103.861C70.0739 105.294 69.9075 106.805 70.0433 108.304C70.1792 109.802 70.6146 111.259 71.3238 112.586C71.8215 113.633 72.611 114.514 73.5974 115.124C74.5838 115.733 75.7251 116.045 76.8844 116.021L79.765 101.748L73.685 96.7188L66.6015 99.6702C61.3125 106.01 59.5062 107.734 60.5333 112.55Z" fill="#FFBE9D"/>
</g>
</g>
<path d="M105.093 108.62C104.137 102.717 97.3718 90.7106 86.6403 91.1711C79.6749 91.478 76.4165 92.8829 73.3942 94.5948C70.9306 96.0462 68.6343 97.7645 66.5468 99.7185C61.305 106.011 59.4633 107.735 60.4786 112.551C60.3953 114.473 60.6963 116.391 61.364 118.195C62.9696 122.48 64.0675 125.278 65.4606 127.321C65.0356 129.316 63.9259 134.581 63.8669 135.785C63.8078 136.99 67.4086 136.151 69.2267 135.691C72.6032 143.247 78.7894 148.488 80.7138 149.091C84.0666 150.141 89.3675 144.628 92.1772 140.354C94.987 136.08 92.862 131.276 92.8738 129.363C92.8856 127.45 99.1899 123.248 101.527 121.913C103.865 120.579 106.037 114.511 105.093 108.62Z" stroke="#263238" stroke-miterlimit="10"/>
<path d="M66.9219 123.754L68.1025 127.13C68.1025 127.13 70.6407 127.969 73.7338 124.592" stroke="#263238" stroke-miterlimit="10" stroke-linecap="round"/>
<path d="M75.6562 139.527C75.6562 139.527 78.466 139.244 79.5994 135.301" stroke="#263238" stroke-miterlimit="10" stroke-linecap="round"/>
<path d="M64.9531 120.933C64.9531 120.933 65.7913 118.395 70.856 118.395" stroke="#263238" stroke-miterlimit="10" stroke-linecap="round"/>
<path d="M90.9209 86.4718C87.2408 85.9426 83.5295 85.6586 79.8116 85.6218C79.8116 85.6218 68.6905 79.2112 58.0063 86.0468C47.322 92.8824 52.4575 104.854 52.4575 107.84C52.4575 110.827 49.0338 110.839 51.1707 114.688C53.3075 118.536 60.5327 116.411 60.5327 116.411C60.6091 114.96 60.9927 113.541 61.6582 112.249C62.3237 110.956 63.2559 109.82 64.3932 108.915C68.2419 105.928 71.3114 105.279 72.5865 106.14C72.5865 106.14 71.7364 112.551 73.0115 115.113C73.0115 115.113 77.2852 117.25 78.572 117.25C79.8589 117.25 77.7338 119.056 81.9957 120.662C82.7722 120.94 83.6027 121.035 84.4221 120.939C85.2415 120.843 86.0274 120.558 86.7181 120.107C87.3438 117.509 88.7132 113.602 91.2633 114.511C95.0057 115.845 98.4176 125.053 93.3529 128.194C99.4447 129.303 106.823 118.525 107.26 108.702C107.697 98.8798 97.2489 87.5816 90.9209 86.4718Z" fill="#263238"/>
<path d="M72.7734 101.925C72.7734 101.925 75.9138 100.237 79.7625 103.85C83.6112 107.462 91.0961 112.291 101.013 109.634" stroke="white" stroke-width="0.5" stroke-linecap="round" stroke-linejoin="round"/>
<path d="M72.3359 99.0327C72.3359 99.0327 74.4964 95.6562 78.109 95.6562C81.7216 95.6562 90.1628 100.721 96.9039 100.721" stroke="white" stroke-width="0.5" stroke-linecap="round" stroke-linejoin="round"/>
<path d="M69.8807 105.539C69.8807 105.539 65.7841 100.486 61.9354 104.583C58.0867 108.679 60.5305 112.551 60.5305 112.551" stroke="white" stroke-width="0.5" stroke-linecap="round" stroke-linejoin="round"/>
<path d="M53.5 108.914C55.8476 106.797 57.3069 103.869 57.5848 100.72C58.0689 95.4196 65.3058 90.8389 69.8747 95.1835" stroke="white" stroke-width="0.5" stroke-linecap="round" stroke-linejoin="round"/>
<path d="M60.9609 89.6352C60.9609 89.6352 68.1979 82.6462 74.2189 91.5596" stroke="white" stroke-width="0.5" stroke-linecap="round" stroke-linejoin="round"/>
<path d="M119.866 433.27C119.866 433.27 124.317 440.188 123.821 444.639L123.337 449.089C123.337 449.089 107.009 453.564 103.55 453.564C100.091 453.564 81.7803 451.828 81.7803 451.828L80.9893 448.688C80.934 448.456 80.9601 448.212 81.0632 447.997C81.1664 447.782 81.3404 447.609 81.556 447.507L97.8835 439.893L103.031 434.261L119.866 433.27Z" fill="#FE8111" stroke="#263238" stroke-width="1.00396" stroke-miterlimit="10"/>
<path d="M106.027 450.081C110.454 450.423 118.86 447.72 123.736 445.996L123.393 449.089C123.393 449.089 107.007 453.564 103.548 453.564C100.088 453.564 81.7776 451.828 81.7776 451.828L81.2109 449.585C84.1388 449.597 100.171 449.632 106.027 450.081Z" fill="#263238" stroke="#263238" stroke-width="1.00396" stroke-miterlimit="10"/>
<path d="M97.9098 439.892L74.1447 450.234C74.1447 450.234 72.1141 455.322 74.1447 456.338C76.1753 457.353 120.447 456.338 120.447 456.338C120.447 456.338 123.505 448.298 118.676 442.903C113.848 437.507 97.9098 439.892 97.9098 439.892Z" fill="#FE8111" stroke="#263238" stroke-width="1.00396" stroke-miterlimit="10"/>
<path d="M120.449 456.337C120.449 456.337 76.1771 457.352 74.1465 456.337C73.1666 455.841 73.1312 454.412 73.3555 453.055H121.228C121.072 454.171 120.811 455.269 120.449 456.337Z" fill="#263238" stroke="#263238" stroke-width="1.00396" stroke-miterlimit="10"/>
<path d="M86.6679 260.195C86.6679 260.195 80.458 287.715 78.1087 304.928C75.7593 322.141 74.378 356.626 74.8739 360.581C75.3697 364.535 100.091 430.802 100.091 430.802L102.559 436.705L119.866 433.245C119.866 433.245 111.956 408.028 108.993 394.18C106.029 380.332 99.5481 357.582 99.5481 353.627C99.5481 349.672 114.896 274.138 115.994 269.18C117.092 264.221 122.074 256.607 122.074 256.607L88.9346 255.934L86.6679 260.195Z" fill="#263238" stroke="white" stroke-width="1.00396" stroke-miterlimit="10"/>
<path d="M86.6634 260.194C86.6634 260.194 83.0272 285.329 84.5266 302.801C86.0259 320.274 89.2489 357.474 89.2489 363.011C89.2489 368.548 98.1859 401.616 98.6936 412.005C99.4846 427.011 98.3748 434.436 98.3748 434.436L97.8436 439.879C97.8436 439.879 108.268 441.367 110.547 442.016C113.178 442.694 115.894 442.988 118.61 442.889C118.61 442.889 122.4 426.208 122.4 411.994C122.4 397.779 119.248 368.524 117.677 356.671C116.107 344.818 121.054 299.094 123.864 290.559C126.673 282.023 132.812 263.948 128.68 254.716C124.548 245.484 86.6634 260.194 86.6634 260.194Z" fill="#263238" stroke="white" stroke-width="1.00396" stroke-miterlimit="10"/>
<path d="M133.268 250.09L132.89 261.329C132.89 261.329 126.161 262.663 117.094 264.233C109.609 265.532 90.8144 263.891 84.4865 263.277C83.9098 263.226 83.3767 262.949 83.003 262.507C82.6294 262.065 82.4454 261.493 82.4913 260.916L83.1052 250.763L133.268 250.09Z" fill="#263238"/>
<path d="M106.965 138.051C106.965 138.051 96.3398 149.538 92.3376 156.68C88.3355 163.823 86.7535 174.767 85.2541 183.385C83.7548 192.003 87.816 212.239 86.6708 221.53L83.0465 250.797C83.0465 250.797 82.2673 252.78 84.8764 254.952C87.4854 257.124 100.224 257.915 111.735 258.494C115.938 258.706 128.487 256.003 130.541 255.873C133.021 255.72 133.103 252.567 133.209 250.088C133.705 238.436 135.807 207.375 137.188 193.845C140.033 166.255 124.461 139.621 106.965 138.051Z" fill="white" stroke="#263238" stroke-width="1.00396" stroke-miterlimit="10"/>
<g style="mix-blend-mode:multiply">
<path d="M135.903 209.535C136.375 203.408 136.847 197.847 137.26 193.845C137.378 192.665 137.449 191.484 137.508 190.303L109.28 195.026L85.0312 186.762C85.0339 191.779 85.3177 196.793 85.8813 201.779L109.67 208.437L135.903 209.535Z" fill="#FE8111"/>
</g>
<g style="mix-blend-mode:multiply">
<path d="M105.921 139.209C104.315 140.992 101.128 144.616 98.0938 148.465L116.015 166.681L121.918 164.32L105.921 139.209Z" fill="#FE8111"/>
</g>
<path d="M106.965 138.051C106.965 138.051 96.3397 149.538 92.3376 156.68C91.1508 158.851 90.1896 161.138 89.4688 163.504L110.837 138.818C109.575 138.436 108.278 138.179 106.965 138.051Z" fill="#263238"/>
<g style="mix-blend-mode:multiply">
<path d="M86.0859 178.734L109.273 186.361L137.43 183.126C136.988 176.112 135.43 169.213 132.813 162.69L110.111 171.792L89.8166 162.596C88.1571 167.871 86.9098 173.266 86.0859 178.734Z" fill="#FE8111"/>
</g>
<g style="mix-blend-mode:multiply">
<path d="M126.001 238.438C114.241 240.412 102.174 239.426 90.8906 235.569L85.2356 233.633L83.4766 247.8L89.9225 249.606C102.177 253.032 114.984 254.019 127.619 252.51L132.825 251.885C133.096 251.311 133.248 250.689 133.274 250.055C133.415 246.903 133.663 242.322 133.982 237.068L126.001 238.438Z" fill="#FE8111"/>
</g>
<g style="mix-blend-mode:multiply">
<path d="M129.155 219.145C117.394 221.127 105.325 220.137 94.0445 216.264L86.8429 213.797C87.0215 216.369 86.986 218.952 86.7367 221.518L85.8984 228.33L93.0764 230.337C105.326 233.767 118.129 234.757 130.761 233.253L134.302 232.828C134.598 228.106 134.94 223.076 135.306 218.106L129.155 219.145Z" fill="#FE8111"/>
</g>
<path d="M18.3917 169.221L41.2188 187.574L42.2026 186.351L19.3756 167.997L18.3917 169.221Z" fill="#263238"/>
<path d="M117.963 150.789C117.963 150.789 126.334 156.491 126.523 169.962C126.605 175.865 125.991 181.378 124.634 191.047C123.276 200.716 114.847 232.202 108.283 236.027C101.719 239.852 91.5301 232.627 91.5301 232.627L42.2525 199.913L30.3404 190.291L24.4375 179.147L26.291 175.605L40.824 186.75L32.9967 179.513L34.5315 177.565L37.3649 179.536L45.629 182.629L47.4353 194.435L49.9853 196.183L97.126 213.407C97.126 213.407 96.5358 188.036 96.9726 183.184C97.4094 178.332 98.0115 166.137 103.206 157.294" fill="white"/>
<mask id="mask4_383_20813" style="mask-type:luminance" maskUnits="userSpaceOnUse" x="24" y="150" width="103" height="88">
<path d="M117.971 150.791C117.971 150.791 126.341 156.493 126.53 169.964C126.613 175.867 125.999 181.38 124.641 191.049C123.284 200.718 114.854 232.204 108.29 236.029C101.726 239.854 91.5379 232.629 91.5379 232.629L42.2603 199.915L30.3482 190.293L24.4453 179.149L26.2988 175.607L40.8318 186.752L33.0045 179.515L34.5393 177.567L37.3727 179.538L45.6368 182.631L47.4431 194.437L49.9931 196.184L97.1339 213.409C97.1339 213.409 96.5436 188.038 96.9804 183.186C97.4172 178.334 98.0193 166.139 103.214 157.296" fill="white"/>
</mask>
<g mask="url(#mask4_383_20813)">
<g style="mix-blend-mode:multiply" opacity="0.5">
<path d="M96.8026 194.237C96.8026 202.997 97.0977 213.41 97.0977 213.41L50.0043 196.256L47.4542 194.509L45.6479 182.703L37.3838 179.61L34.5622 177.603L33.0275 179.551L40.8311 186.752L26.2981 175.607L24.5391 179.09L30.442 190.235L42.3541 199.916L45.3528 201.911L110.462 222.89L96.8026 194.237Z" fill="#FFBE9D"/>
</g>
</g>
<path d="M117.963 150.789C117.963 150.789 126.334 156.491 126.523 169.962C126.605 175.865 125.991 181.378 124.634 191.047C123.276 200.716 114.847 232.202 108.283 236.027C101.719 239.852 91.5301 232.627 91.5301 232.627L42.2525 199.913L30.3404 190.291L24.4375 179.147L26.291 175.605L40.824 186.75L32.9967 179.513L34.5315 177.565L37.3649 179.536L45.629 182.629L47.4353 194.435L49.9853 196.183L97.126 213.407C97.126 213.407 96.5358 188.036 96.9726 183.184C97.4094 178.332 98.0115 166.137 103.206 157.294" stroke="#263238" stroke-width="1.00396" stroke-miterlimit="10"/>
<path d="M97.123 213.409L115.115 226.395L119.778 218.131C119.778 218.131 123.001 215.593 123.474 213.68C123.946 211.767 123.344 208.663 123.828 206.75C124.312 204.837 126.72 203.043 126.945 198.415C127.169 193.787 126.945 189.927 126.945 189.927C126.945 189.927 130.84 173.906 130.415 166.941C129.99 159.975 123.273 147.662 117.889 147.39C112.506 147.119 105.505 147.933 100.074 156.15C94.6438 164.367 95.7535 188.357 94.9035 189.856C94.0535 191.355 95.2341 198.757 95.2341 198.757C94.7622 199.109 94.3708 199.558 94.0858 200.073C93.8008 200.588 93.6288 201.158 93.5812 201.744C93.4868 203.669 95.5646 208.403 95.5646 208.403L97.123 213.409Z" fill="white" stroke="#263238" stroke-width="1.00396" stroke-miterlimit="10"/>
<g style="mix-blend-mode:multiply">
<path d="M95.375 183.693C95.4121 185.753 95.2579 187.813 94.9146 189.844C94.159 191.19 95.0208 197.27 95.2097 198.51C105.329 201.653 116.03 202.46 126.507 200.871C126.732 200.05 126.867 199.207 126.908 198.356C127.145 193.74 126.908 189.868 126.908 189.868C126.908 189.868 127.251 188.439 127.723 186.267C116.873 186.957 105.98 186.09 95.375 183.693Z" fill="#FE8111"/>
</g>
<g style="mix-blend-mode:multiply">
<path d="M99.3476 157.461C97.6594 160.849 96.7149 165.938 96.1719 171.097C106.889 175.187 118.445 176.593 129.83 175.193C130.285 172.463 130.486 169.697 130.432 166.929C130.228 164.742 129.711 162.595 128.898 160.554C118.956 160.786 109.026 159.747 99.3476 157.461Z" fill="#FE8111"/>
</g>
<path d="M95.5703 208.531L97.0933 213.407L115.085 226.393L119.749 218.129C119.749 218.129 122.972 215.591 123.444 213.679C123.528 213.346 123.58 213.006 123.597 212.663C114.116 212.5 104.696 211.111 95.5703 208.531Z" fill="#263238"/>
<path d="M108.585 441.862C108.585 441.862 108.987 431.638 110.946 416.692C112.906 401.745 108.196 380.519 107.405 376.977C106.614 373.435 107.806 365.572 107.015 362.81C106.224 360.047 102.399 348.265 104.654 334.594C106.909 320.923 108.739 284.785 108.739 284.785C108.739 284.785 103.06 280.169 101.395 274.16C99.7308 268.151 101.006 266.262 101.006 266.262" stroke="white" stroke-width="1.00396" stroke-miterlimit="10"/>
<path d="M111.215 266.818L109.031 278.908" stroke="white" stroke-width="1.00396" stroke-miterlimit="10"/>
</svg>
