<svg width="500" height="500" viewBox="0 0 500 500" fill="none" xmlns="http://www.w3.org/2000/svg">
<ellipse cx="255" cy="454.5" rx="190" ry="3.5" fill="#C9D9FF"/>
<path d="M466.89 316.201H303V221.361H466.89V316.201ZM304 315.201H465.89V222.361H304V315.201Z" fill="#95B2FF"/>
<path d="M433.08 271.932H324.95V275.102H433.08V271.932Z" fill="#F0F0F0"/>
<path d="M440.53 283.75H324.95V287.21H440.53V283.75Z" fill="#F0F0F0"/>
<path d="M440.53 295.711H324.95V299.171H440.53V295.711Z" fill="#F0F0F0"/>
<path d="M362.74 254.762H324.95V262.992H362.74V254.762Z" fill="#F0F0F0"/>
<path d="M466.39 221.861H303.53V236.961H466.39V221.861Z" fill="#95B2FF"/>
<path d="M453.86 234.701C453.65 234.501 455.75 231.971 458.54 229.051C461.33 226.131 463.78 223.921 463.98 224.111C464.18 224.301 462.09 226.841 459.3 229.771C456.51 232.701 454.06 234.901 453.86 234.701Z" fill="white"/>
<path d="M464 234.7C463.8 234.9 461.36 232.7 458.56 229.77C455.76 226.84 453.67 224.31 453.88 224.11C454.09 223.91 456.52 226.11 459.32 229.05C462.12 231.99 464.19 234.5 464 234.7Z" fill="white"/>
<path d="M265.22 34.0508H102.36V127.901H265.22V34.0508Z" fill="#C9D9FF"/>
<path d="M231.92 84.1309H123.79V87.3009H231.92V84.1309Z" fill="#F0F0F0"/>
<path d="M239.37 95.9512H123.79V99.4112H239.37V95.9512Z" fill="#F0F0F0"/>
<path d="M239.37 107.91H123.79V111.37H239.37V107.91Z" fill="#F0F0F0"/>
<path d="M161.58 66.9609H123.79V75.1909H161.58V66.9609Z" fill="#F0F0F0"/>
<path d="M265.22 34.0508H102.36V49.1508H265.22V34.0508Z" fill="#95B2FF"/>
<path d="M252.14 46.8211C251.93 46.6311 254.03 44.0911 256.82 41.1711C259.61 38.2511 262.06 36.0411 262.26 36.2411C262.46 36.4411 260.37 38.9711 257.58 41.8911C254.79 44.8111 252.34 47.0011 252.14 46.8211Z" fill="white"/>
<path d="M262.26 46.8211C262.06 47.0211 259.62 44.8211 256.82 41.8911C254.02 38.9611 251.93 36.4411 252.14 36.2411C252.35 36.0411 254.78 38.2411 257.58 41.1711C260.38 44.1011 262.47 46.6311 262.26 46.8211Z" fill="white"/>
<path d="M203.54 208.391H39.6797V113.541H203.54V208.391ZM40.6797 207.391H202.54V114.541H40.6797V207.391Z" fill="#95B2FF"/>
<path d="M169.74 164.121H61.6096V167.291H169.74V164.121Z" fill="#F0F0F0"/>
<path d="M177.19 175.941H61.6096V179.401H177.19V175.941Z" fill="#F0F0F0"/>
<path d="M177.19 187.9H61.6096V191.36H177.19V187.9Z" fill="#F0F0F0"/>
<path d="M99.3996 146.951H61.6096V155.181H99.3996V146.951Z" fill="#F0F0F0"/>
<path d="M203.04 114.041H40.1797V129.141H203.04V114.041Z" fill="#95B2FF"/>
<path d="M392.65 230.121H200.35V402.281H392.65V230.121Z" fill="#C9D9FF"/>
<path d="M210.02 175.891H59.3796V332.401H210.02V175.891Z" fill="#E0E9FF"/>
<path d="M210.02 175.891H59.3796V192.941H210.02V175.891Z" fill="#95B2FF"/>
<path d="M71.8196 184.241C71.7922 184.86 71.5838 185.456 71.2203 185.957C70.8568 186.458 70.3543 186.841 69.775 187.059C69.1957 187.277 68.5652 187.32 67.9617 187.183C67.3583 187.045 66.8084 186.734 66.3803 186.287C65.9523 185.84 65.6649 185.277 65.5539 184.668C65.4429 184.059 65.5132 183.431 65.7559 182.862C65.9986 182.293 66.4032 181.807 66.9194 181.466C67.4356 181.124 68.0407 180.942 68.6596 180.941C69.5154 180.962 70.3282 181.321 70.9203 181.94C71.5124 182.558 71.8357 183.385 71.8196 184.241Z" fill="white"/>
<path d="M84.6496 184.241C84.6241 184.863 84.4165 185.463 84.0526 185.967C83.6887 186.471 83.1846 186.857 82.603 187.077C82.0214 187.296 81.388 187.34 80.7816 187.203C80.1753 187.066 79.6227 186.753 79.1927 186.304C78.7627 185.855 78.4742 185.289 78.3632 184.677C78.2522 184.066 78.3235 183.435 78.5683 182.863C78.8131 182.292 79.2206 181.805 79.74 181.463C80.2594 181.121 80.8678 180.94 81.4896 180.941C82.3454 180.962 83.1582 181.321 83.7503 181.94C84.3424 182.558 84.6657 183.385 84.6496 184.241Z" fill="white"/>
<path d="M97.4797 184.241C97.4542 184.863 97.2466 185.463 96.8827 185.967C96.5188 186.471 96.0146 186.857 95.4331 187.077C94.8515 187.296 94.2181 187.34 93.6117 187.203C93.0053 187.066 92.4528 186.753 92.0228 186.304C91.5928 185.855 91.3043 185.289 91.1933 184.677C91.0823 184.066 91.1536 183.435 91.3984 182.863C91.6432 182.292 92.0507 181.805 92.5701 181.463C93.0895 181.121 93.6979 180.94 94.3197 180.941C95.1755 180.962 95.9883 181.321 96.5804 181.94C97.1725 182.558 97.4958 183.385 97.4797 184.241Z" fill="white"/>
<path d="M445.38 68.2812H253.08V259.941H445.38V68.2812Z" fill="#E0E9FF"/>
<path d="M445.38 68.2812H253.08V90.7313H445.38V68.2812Z" fill="#95B2FF"/>
<path d="M269.46 79.2816C269.424 80.0978 269.15 80.8856 268.671 81.5473C268.192 82.209 267.529 82.7153 266.765 83.0035C266 83.2917 265.168 83.3491 264.371 83.1684C263.575 82.9877 262.849 82.5771 262.283 81.9873C261.718 81.3976 261.338 80.6548 261.191 79.8512C261.045 79.0476 261.137 78.2186 261.457 77.467C261.777 76.7155 262.311 76.0746 262.993 75.6238C263.674 75.1731 264.473 74.9324 265.29 74.9316C266.419 74.9579 267.491 75.4303 268.273 76.2456C269.054 77.0608 269.481 78.1525 269.46 79.2816Z" fill="white"/>
<path d="M285.13 76.3405C285.684 76.9426 286.049 77.6944 286.179 78.5024C286.309 79.3104 286.199 80.1389 285.861 80.8845C285.524 81.6301 284.974 82.2599 284.282 82.6955C283.589 83.1311 282.783 83.3532 281.965 83.3341C281.147 83.315 280.352 83.0556 279.68 82.5882C279.009 82.1207 278.489 81.4659 278.187 80.7054C277.885 79.9449 277.813 79.1122 277.981 78.3111C278.148 77.5101 278.548 76.7761 279.13 76.2005C279.945 75.425 281.034 75.0042 282.159 75.0305C283.283 75.0567 284.352 75.5278 285.13 76.3405Z" fill="white"/>
<path d="M303.239 79.2797C303.204 80.0958 302.93 80.8837 302.451 81.5453C301.972 82.207 301.309 82.7134 300.544 83.0016C299.78 83.2898 298.948 83.3471 298.151 83.1664C297.354 82.9858 296.628 82.5751 296.063 81.9854C295.498 81.3957 295.118 80.6529 294.971 79.8493C294.824 79.0457 294.917 78.2166 295.237 77.4651C295.557 76.7135 296.091 76.0726 296.773 75.6219C297.454 75.1711 298.253 74.9304 299.069 74.9297C300.198 74.9559 301.271 75.4284 302.053 76.2436C302.834 77.0589 303.261 78.1505 303.239 79.2797Z" fill="white"/>
<path d="M336.178 330.712C320.728 319.922 317.228 299.892 317.838 281.882C317.938 278.882 317.608 275.702 319.038 273.072C320.468 270.442 323.808 268.632 326.498 269.892C328.728 270.942 329.698 273.542 330.948 275.692C332.616 278.556 335.06 280.889 337.998 282.422C339.908 283.422 342.278 284.022 344.168 282.982C346.768 281.552 347.068 277.982 347.048 274.982C347.048 269.402 347.015 263.829 346.948 258.262C346.769 255.273 347.073 252.274 347.848 249.382C348.778 246.542 350.848 243.912 353.678 243.112C356.508 242.312 360.038 243.962 360.678 246.882C360.789 248.119 360.819 249.361 360.768 250.602C360.848 251.852 361.428 253.222 362.598 253.602C363.768 253.982 364.988 253.112 365.888 252.232C368.968 249.232 371.068 245.322 373.018 241.462C374.968 237.602 376.878 233.632 379.678 230.342C382.478 227.052 386.348 224.442 390.678 224.192C395.008 223.942 399.518 226.602 400.598 230.802C401.678 235.002 399.228 239.292 396.598 242.702C392.63 247.764 387.952 252.226 382.708 255.952C381.685 256.511 380.868 257.384 380.378 258.442C379.728 260.442 381.618 262.442 383.588 263.072C385.818 263.812 388.238 263.582 390.588 263.862C392.938 264.142 395.438 265.162 396.328 267.362C397.548 270.422 394.988 273.622 392.478 275.722C387.438 279.922 381.715 283.227 375.558 285.492C373.358 286.292 371.048 287.002 369.268 288.542C367.488 290.082 366.428 292.772 367.498 294.882C368.568 296.992 371.318 297.662 373.628 297.232C375.938 296.802 377.988 295.562 380.188 294.732C384.298 293.182 389.598 293.462 392.188 297.012C392.991 298.235 393.499 299.627 393.672 301.079C393.846 302.532 393.68 304.005 393.188 305.382C392.188 308.123 390.647 310.636 388.658 312.772C382.109 320.597 373.599 326.543 363.998 330.002C354.468 333.302 345.638 334.202 336.168 330.732" fill="#316AFF"/>
<path d="M396.198 226.662C396.198 226.662 396.108 226.762 395.908 226.942L395.018 227.732C394.238 228.432 393.088 229.452 391.638 230.802C387.527 234.619 383.71 238.741 380.218 243.132C377.988 245.902 375.678 249.042 373.218 252.452C370.758 255.862 368.218 259.542 365.698 263.452C363.012 267.575 360.551 271.842 358.328 276.232C357.168 278.522 356.148 280.912 355.098 283.352L351.998 290.802C347.912 300.186 344.353 309.791 341.338 319.572C338.91 327.575 337.236 335.787 336.338 344.102C335.757 349.713 335.663 355.365 336.058 360.992C336.218 362.992 336.368 364.522 336.508 365.562C336.568 366.062 336.608 366.462 336.648 366.752V367.162C336.605 367.032 336.575 366.898 336.558 366.762C336.508 366.472 336.448 366.082 336.368 365.582C336.188 364.582 335.998 363.002 335.818 361.002C335.336 355.364 335.369 349.694 335.918 344.062C336.76 335.712 338.398 327.461 340.808 319.422C343.798 309.614 347.347 299.984 351.438 290.582L354.618 283.162C355.668 280.732 356.698 278.322 357.868 276.022C360.107 271.618 362.587 267.342 365.298 263.212C367.858 259.212 370.438 255.592 372.868 252.212C375.298 248.832 377.648 245.672 379.868 242.912C383.395 238.533 387.264 234.44 391.438 230.672C392.918 229.342 394.098 228.342 394.898 227.672L395.828 226.922C395.942 226.823 396.066 226.736 396.198 226.662Z" fill="#263238"/>
<path d="M357.998 276.001C357.857 275.589 357.76 275.164 357.708 274.731C357.548 273.901 357.368 272.731 357.158 271.211C356.728 268.211 356.288 264.101 355.818 259.551C355.348 255.001 354.818 250.881 354.378 247.911C354.148 246.431 353.948 245.241 353.808 244.411C353.699 243.987 353.642 243.55 353.638 243.111C353.811 243.512 353.935 243.932 354.008 244.361C354.228 245.181 354.478 246.361 354.758 247.851C355.328 250.851 355.888 254.931 356.358 259.491C356.828 264.051 357.228 268.051 357.538 271.161C357.688 272.561 357.818 273.751 357.918 274.701C357.996 275.13 358.023 275.566 357.998 276.001Z" fill="#263238"/>
<path d="M396.478 268.822C395.992 268.928 395.496 268.988 394.998 269.002C393.998 269.092 392.578 269.212 390.818 269.412C387.298 269.792 382.458 270.492 377.148 271.492C371.838 272.492 367.068 273.622 363.638 274.492C361.928 274.932 360.548 275.332 359.638 275.602C359.153 275.774 358.65 275.895 358.138 275.962C358.601 275.729 359.082 275.539 359.578 275.392C360.518 275.062 361.878 274.602 363.578 274.112C366.988 273.112 371.758 271.922 377.088 270.902C381.603 270.038 386.159 269.404 390.738 269.002C392.508 268.852 393.938 268.792 394.938 268.772C395.452 268.737 395.968 268.753 396.478 268.822Z" fill="#263238"/>
<path d="M341.298 318.721C341.192 318.576 341.104 318.418 341.038 318.251L340.378 316.861C339.808 315.651 339.038 313.861 338.118 311.671C336.258 307.271 333.888 301.111 331.368 294.271C328.848 287.431 326.528 281.271 324.768 276.821C323.908 274.661 323.198 272.891 322.668 271.571L322.108 270.141C322.031 269.976 321.977 269.801 321.948 269.621C322.055 269.766 322.142 269.924 322.208 270.091L322.868 271.481C323.428 272.691 324.208 274.481 325.128 276.671C326.988 281.071 329.358 287.231 331.878 294.071C334.398 300.911 336.718 307.071 338.478 311.521C339.338 313.681 340.048 315.451 340.568 316.771C340.798 317.341 340.988 317.771 341.138 318.201C341.216 318.366 341.27 318.541 341.298 318.721Z" fill="#263238"/>
<path d="M392.379 302.252C392.218 302.344 392.047 302.414 391.869 302.462L390.389 302.962L384.919 304.732C380.299 306.232 373.919 308.372 366.919 310.732C359.919 313.092 353.509 315.192 348.859 316.592C346.539 317.302 344.649 317.842 343.339 318.202L341.829 318.592C341.653 318.648 341.472 318.685 341.289 318.702C341.449 318.61 341.62 318.539 341.799 318.492L343.279 317.992L348.749 316.222C353.369 314.722 359.749 312.582 366.749 310.222C373.749 307.862 380.149 305.762 384.799 304.362C387.129 303.652 389.009 303.112 390.329 302.752L391.839 302.362C392.014 302.306 392.195 302.269 392.379 302.252Z" fill="#263238"/>
<path d="M371.539 59.6812L366.389 61.5212L364.179 54.7912C360.119 42.3812 347.179 35.7912 335.289 39.9812C323.399 44.1712 317.069 57.7812 321.129 70.1912L323.339 76.9212L318.169 78.7712C316.198 79.5359 314.597 81.0308 313.699 82.9454C312.802 84.8599 312.676 87.0467 313.349 89.0512L327.679 132.841C327.977 133.834 328.471 134.756 329.132 135.554C329.793 136.351 330.607 137.008 331.527 137.485C332.447 137.961 333.453 138.248 334.486 138.328C335.519 138.409 336.557 138.28 337.539 137.951L390.909 118.861C392.907 118.098 394.53 116.59 395.439 114.654C396.347 112.718 396.469 110.505 395.779 108.481L381.439 64.6912C381.134 63.7017 380.633 62.7838 379.965 61.9922C379.297 61.2007 378.477 60.5518 377.553 60.0842C376.629 59.6166 375.62 59.3399 374.587 59.2707C373.554 59.2015 372.517 59.3411 371.539 59.6812ZM330.859 66.6812C329.765 63.4544 329.961 59.9292 331.408 56.8441C332.854 53.759 335.439 51.3533 338.619 50.1312C340.19 49.5939 341.853 49.3784 343.508 49.4976C345.164 49.6169 346.779 50.0684 348.256 50.8253C349.734 51.5822 351.043 52.6289 352.107 53.9031C353.171 55.1772 353.968 56.6526 354.449 58.2412L356.649 64.9712L333.059 73.4112L330.859 66.6812ZM360.859 105.541L364.519 116.721C364.587 116.945 364.565 117.187 364.459 117.395C364.353 117.604 364.17 117.764 363.949 117.841L358.819 119.671C358.615 119.728 358.397 119.703 358.211 119.603C358.024 119.502 357.884 119.333 357.819 119.131L354.129 108.001C352.095 107.89 350.142 107.161 348.534 105.91C346.926 104.659 345.738 102.946 345.129 101.001C344.26 98.4302 344.418 95.6223 345.572 93.1656C346.726 90.7089 348.785 88.7937 351.319 87.8212C352.57 87.3938 353.895 87.2226 355.214 87.3178C356.532 87.413 357.818 87.7728 358.995 88.3756C360.172 88.9784 361.215 89.812 362.063 90.8266C362.911 91.8412 363.545 93.0161 363.929 94.2812C364.573 96.2568 364.626 98.3771 364.082 100.382C363.539 102.388 362.422 104.191 360.869 105.571L360.859 105.541Z" fill="#316AFF"/>
<path d="M366.159 61.402C366.159 61.542 356.609 65.132 344.729 69.402C332.849 73.672 323.159 77.102 323.109 77.002C323.059 76.902 332.659 73.282 344.549 69.002C356.439 64.722 366.109 61.272 366.159 61.402Z" fill="#263238"/>
<path d="M377.499 63.2422C377.543 63.329 377.58 63.4193 377.609 63.5122C377.689 63.7122 377.779 63.9722 377.899 64.2922C378.159 65.0222 378.519 66.0322 378.969 67.2922L382.809 78.4722C384.409 83.2122 386.319 88.8322 388.439 95.0722C389.439 98.2022 390.619 101.462 391.719 104.892C392.308 106.66 392.562 108.521 392.469 110.382C392.385 111.35 392.109 112.291 391.659 113.152C391.179 114.01 390.537 114.767 389.769 115.382C388.224 116.51 386.51 117.384 384.689 117.972L379.539 119.822L369.789 123.312L353.279 129.192L342.129 133.112L339.129 134.112L338.329 134.372C338.244 134.41 338.153 134.434 338.059 134.442C338.059 134.442 338.139 134.442 338.309 134.322L339.089 134.012L342.089 132.882L353.179 128.802L369.659 122.802L379.389 119.282L384.539 117.422C386.308 116.858 387.973 116.01 389.469 114.912C390.184 114.342 390.781 113.639 391.229 112.842C391.653 112.046 391.908 111.171 391.979 110.272C392.071 108.479 391.827 106.685 391.259 104.982C390.179 101.582 389.039 98.2922 388.009 95.1622C385.929 88.9122 384.009 83.2722 382.489 78.5322C380.969 73.7922 379.689 69.9822 378.809 67.3022C378.389 65.9922 378.069 64.9722 377.809 64.2322L377.569 63.4322C377.539 63.3716 377.516 63.3079 377.499 63.2422Z" fill="#263238"/>
<path d="M349.339 49.4512C349.339 49.4512 348.809 49.1912 347.829 48.7912C346.433 48.2545 344.955 47.957 343.459 47.9112C341.242 47.8352 339.036 48.2519 336.999 49.1312C334.523 50.2262 332.405 51.9973 330.889 54.2412C329.364 56.4787 328.545 59.123 328.539 61.8312C328.56 64.0509 328.897 66.2564 329.539 68.3812C330.059 70.2012 330.599 71.6512 330.959 72.6612C331.172 73.1742 331.346 73.7024 331.479 74.2412C331.195 73.7616 330.958 73.256 330.769 72.7312C330.359 71.7312 329.769 70.3112 329.189 68.4812C328.477 66.3341 328.09 64.0927 328.039 61.8312C328.013 59.0206 328.851 56.2698 330.439 53.9512C332.008 51.6253 334.212 49.7995 336.789 48.6912C338.89 47.8071 341.165 47.417 343.439 47.5512C344.968 47.6291 346.469 47.9849 347.869 48.6012C348.244 48.774 348.605 48.9745 348.949 49.2012C349.092 49.2637 349.223 49.3481 349.339 49.4512Z" fill="#263238"/>
<path d="M349.799 88.5808C349.959 88.4841 350.126 88.4005 350.299 88.3308C350.8 88.1049 351.318 87.9209 351.849 87.7808C352.692 87.532 353.562 87.3843 354.439 87.3408C355.633 87.2766 356.828 87.457 357.949 87.8708C360.509 88.7708 362.859 91.3808 364.019 94.8708C364.576 96.7437 364.576 98.7379 364.019 100.611C363.403 102.644 362.297 104.494 360.799 106.001L360.859 105.731C362.189 109.381 363.639 113.341 365.139 117.471L365.229 117.721L364.979 117.811L362.689 118.571L357.689 120.241L357.439 120.321L357.359 120.071C355.989 115.931 354.489 112.071 353.359 108.281L353.579 108.451C351.624 108.288 349.76 107.555 348.219 106.341C346.825 105.267 345.682 103.902 344.869 102.341C344.136 100.956 343.771 99.4068 343.809 97.8408C343.856 96.2402 344.255 94.6697 344.98 93.2417C345.704 91.8137 346.735 90.5636 347.999 89.5808C348.52 89.1584 349.104 88.8209 349.729 88.5808C349.164 88.9159 348.617 89.2797 348.089 89.6708C346.701 90.8456 345.637 92.3572 344.999 94.0608C344.452 95.3454 344.196 96.7353 344.25 98.1305C344.304 99.5258 344.665 100.892 345.309 102.131C346.108 103.633 347.224 104.943 348.579 105.971C350.049 107.125 351.827 107.82 353.689 107.971H353.859L353.909 108.121C355.009 111.841 356.519 115.731 357.909 119.891L357.579 119.731L362.579 118.061L364.859 117.291L364.699 117.631C363.209 113.501 361.769 109.531 360.449 105.881V105.731L360.569 105.611C362.023 104.167 363.107 102.393 363.729 100.441C364.26 98.6492 364.26 96.7423 363.729 94.9508C362.639 91.5908 360.389 89.0408 357.949 88.1408C356.869 87.7243 355.716 87.5304 354.559 87.5708C353.696 87.5906 352.837 87.708 351.999 87.9208C350.509 88.2908 349.809 88.6308 349.799 88.5808Z" fill="#263238"/>
<path d="M318.892 377.32L219.002 376.86C213.233 376.828 207.713 374.508 203.654 370.41C199.594 366.311 197.328 360.769 197.352 355L198.412 104.59C198.424 101.732 198.998 98.9044 200.104 96.2688C201.209 93.6332 202.823 91.2412 204.853 89.2296C206.883 87.218 209.29 85.6263 211.935 84.5453C214.581 83.4644 217.414 82.9155 220.272 82.93L320.152 83.39C325.92 83.4191 331.441 85.7365 335.503 89.8333C339.564 93.9302 341.833 99.4714 341.812 105.24L340.752 355.64C340.74 358.499 340.165 361.327 339.06 363.964C337.955 366.601 336.342 368.994 334.312 371.007C332.282 373.021 329.875 374.614 327.23 375.697C324.584 376.78 321.751 377.332 318.892 377.32Z" fill="#455A64"/>
<path d="M320.002 92.0004H300.642C300.01 92.0121 299.387 92.1482 298.808 92.4008C298.229 92.6534 297.705 93.0176 297.267 93.4726C296.828 93.9277 296.484 94.4646 296.253 95.0527C296.022 95.6409 295.91 96.2687 295.922 96.9004V100.41C295.934 101.042 295.821 101.669 295.59 102.257C295.359 102.844 295.015 103.38 294.576 103.835C294.138 104.289 293.614 104.652 293.035 104.904C292.456 105.155 291.833 105.29 291.202 105.3L253.462 105.13C252.185 105.096 250.974 104.557 250.095 103.631C249.215 102.705 248.739 101.467 248.772 100.19V96.6804C248.804 95.4053 248.329 94.1694 247.452 93.2435C246.575 92.3176 245.367 91.7771 244.092 91.7404H237.282L220.332 91.6604C216.3 91.6364 212.423 93.2109 209.55 96.0392C206.677 98.8674 205.041 102.719 205.002 106.75L204.002 351.17C203.992 353.17 204.377 355.153 205.134 357.004C205.891 358.855 207.005 360.539 208.413 361.96C209.821 363.381 211.494 364.51 213.339 365.284C215.183 366.058 217.162 366.461 219.162 366.47L318.842 366.93C320.843 366.94 322.827 366.555 324.679 365.797C326.532 365.04 328.217 363.925 329.638 362.516C331.06 361.108 332.19 359.433 332.965 357.587C333.739 355.742 334.142 353.762 334.152 351.76L335.152 107.34C335.176 103.298 333.593 99.4107 330.752 96.5341C327.911 93.6576 324.044 92.0269 320.002 92.0004Z" fill="white"/>
<path d="M306.592 334.321L232.472 334.001C231.702 334.001 231.082 333.161 231.092 332.141L231.172 312.751C231.172 311.751 231.802 310.891 232.572 310.891L306.692 311.231C307.118 311.304 307.5 311.54 307.757 311.888C308.014 312.237 308.127 312.671 308.072 313.101L308.002 332.471C308.002 333.501 307.362 334.331 306.592 334.321Z" fill="#316AFF"/>
<path d="M256.542 320.215C256.507 319.923 256.367 319.695 256.12 319.534C255.874 319.372 255.572 319.291 255.214 319.291C254.952 319.291 254.723 319.333 254.526 319.418C254.332 319.503 254.18 319.619 254.07 319.768C253.962 319.916 253.909 320.084 253.909 320.273C253.909 320.431 253.946 320.566 254.021 320.68C254.098 320.792 254.196 320.885 254.316 320.96C254.435 321.033 254.56 321.094 254.691 321.142C254.822 321.188 254.942 321.226 255.052 321.255L255.653 321.416C255.807 321.457 255.978 321.513 256.167 321.584C256.357 321.655 256.539 321.752 256.712 321.875C256.887 321.997 257.032 322.153 257.145 322.343C257.259 322.534 257.316 322.768 257.316 323.045C257.316 323.364 257.232 323.653 257.065 323.911C256.899 324.169 256.656 324.374 256.337 324.526C256.019 324.678 255.633 324.754 255.179 324.754C254.756 324.754 254.389 324.686 254.079 324.549C253.771 324.413 253.528 324.222 253.351 323.978C253.176 323.733 253.077 323.449 253.054 323.126H253.793C253.812 323.349 253.887 323.534 254.018 323.68C254.151 323.825 254.319 323.932 254.521 324.004C254.725 324.073 254.944 324.108 255.179 324.108C255.452 324.108 255.698 324.063 255.915 323.975C256.133 323.884 256.305 323.759 256.432 323.599C256.559 323.438 256.623 323.249 256.623 323.033C256.623 322.837 256.568 322.677 256.458 322.554C256.348 322.431 256.204 322.331 256.025 322.254C255.846 322.177 255.653 322.109 255.445 322.052L254.717 321.844C254.255 321.711 253.889 321.521 253.62 321.275C253.35 321.028 253.216 320.706 253.216 320.308C253.216 319.976 253.305 319.688 253.484 319.441C253.665 319.193 253.908 319 254.212 318.864C254.518 318.725 254.859 318.656 255.237 318.656C255.618 318.656 255.957 318.724 256.253 318.861C256.55 318.996 256.784 319.18 256.958 319.415C257.133 319.65 257.225 319.917 257.235 320.215H256.542ZM259.209 318.737V324.65H258.493V318.737H259.209ZM265.334 318.737V324.65H264.641L261.419 320.007H261.361V324.65H260.645V318.737H261.338L264.572 323.391H264.63V318.737H265.334ZM270.81 320.585C270.746 320.39 270.663 320.216 270.559 320.062C270.457 319.906 270.334 319.773 270.192 319.664C270.051 319.554 269.892 319.47 269.713 319.412C269.534 319.355 269.337 319.326 269.124 319.326C268.773 319.326 268.455 319.416 268.168 319.597C267.881 319.778 267.653 320.045 267.484 320.397C267.314 320.749 267.229 321.182 267.229 321.694C267.229 322.206 267.315 322.638 267.486 322.99C267.658 323.342 267.89 323.609 268.182 323.79C268.475 323.971 268.804 324.061 269.17 324.061C269.509 324.061 269.807 323.989 270.065 323.845C270.325 323.698 270.527 323.492 270.671 323.227C270.818 322.959 270.891 322.645 270.891 322.283L271.11 322.329H269.332V321.694H271.584V322.329C271.584 322.816 271.48 323.239 271.272 323.599C271.066 323.959 270.781 324.238 270.417 324.437C270.055 324.633 269.64 324.731 269.17 324.731C268.646 324.731 268.186 324.608 267.79 324.362C267.395 324.115 267.087 323.765 266.866 323.311C266.646 322.856 266.536 322.317 266.536 321.694C266.536 321.226 266.599 320.805 266.724 320.432C266.851 320.056 267.03 319.737 267.261 319.473C267.492 319.209 267.766 319.007 268.081 318.867C268.397 318.726 268.744 318.656 269.124 318.656C269.435 318.656 269.726 318.703 269.996 318.797C270.267 318.89 270.509 319.022 270.72 319.193C270.934 319.362 271.112 319.565 271.255 319.802C271.397 320.037 271.495 320.298 271.549 320.585H270.81ZM278.978 318.737H279.694V322.652C279.694 323.056 279.599 323.417 279.408 323.735C279.22 324.051 278.953 324.3 278.608 324.483C278.264 324.664 277.86 324.754 277.396 324.754C276.932 324.754 276.528 324.664 276.183 324.483C275.838 324.3 275.571 324.051 275.38 323.735C275.192 323.417 275.097 323.056 275.097 322.652V318.737H275.813V322.594C275.813 322.883 275.877 323.14 276.004 323.365C276.131 323.589 276.312 323.765 276.547 323.894C276.784 324.021 277.067 324.084 277.396 324.084C277.725 324.084 278.008 324.021 278.245 323.894C278.481 323.765 278.662 323.589 278.787 323.365C278.915 323.14 278.978 322.883 278.978 322.594V318.737ZM281.124 324.65V318.737H283.122C283.586 318.737 283.966 318.82 284.26 318.988C284.557 319.153 284.776 319.378 284.918 319.661C285.061 319.944 285.132 320.259 285.132 320.608C285.132 320.956 285.061 321.273 284.918 321.558C284.778 321.843 284.56 322.07 284.266 322.239C283.971 322.407 283.594 322.491 283.134 322.491H281.702V321.855H283.111C283.428 321.855 283.684 321.8 283.876 321.691C284.069 321.581 284.208 321.433 284.295 321.246C284.383 321.057 284.428 320.845 284.428 320.608C284.428 320.371 284.383 320.159 284.295 319.973C284.208 319.786 284.068 319.64 283.873 319.534C283.679 319.426 283.421 319.372 283.099 319.372H281.84V324.65H281.124Z" fill="#E8E8E3"/>
<path d="M247.256 163.851L221.536 163.734L221.515 168.454L247.234 168.571L247.256 163.851Z" fill="#316AFF"/>
<path opacity="0.1" d="M247.256 163.851L221.536 163.734L221.515 168.454L247.234 168.571L247.256 163.851Z" fill="black"/>
<path d="M322.652 192.829C322.854 192.809 323.052 192.762 323.242 192.689C323.519 192.581 323.759 192.397 323.936 192.158C324.113 191.919 324.219 191.635 324.242 191.339C324.242 189.749 324.242 187.429 324.242 184.449C324.242 182.959 324.242 181.289 324.242 179.449C324.242 178.999 324.242 178.529 324.242 178.059C324.307 177.603 324.208 177.139 323.962 176.749C323.824 176.562 323.645 176.41 323.439 176.304C323.232 176.198 323.004 176.142 322.772 176.139H321.212H306.762L223.122 175.829C222.908 175.825 222.696 175.874 222.504 175.969C222.313 176.065 222.147 176.206 222.022 176.379C221.78 176.77 221.688 177.235 221.762 177.689C221.762 178.689 221.762 179.689 221.762 180.689C221.762 182.689 221.762 184.689 221.762 186.689C221.762 187.689 221.762 188.689 221.762 189.689C221.72 190.155 221.72 190.623 221.762 191.089C221.814 191.289 221.912 191.474 222.047 191.63C222.182 191.786 222.352 191.909 222.542 191.989C222.739 192.068 222.95 192.105 223.162 192.099H228.252L250.462 192.219L288.062 192.449L313.412 192.649L320.302 192.729H322.092C322.502 192.729 322.702 192.729 322.702 192.729H322.092H320.302H313.412H288.062L250.462 192.609L228.252 192.519H223.162C222.882 192.53 222.602 192.483 222.342 192.379C222.078 192.267 221.844 192.096 221.657 191.879C221.47 191.662 221.335 191.406 221.262 191.129C221.204 190.867 221.184 190.597 221.202 190.329V189.589C221.202 188.589 221.202 187.589 221.202 186.589C221.202 184.589 221.202 182.589 221.202 180.589C221.202 179.589 221.202 178.589 221.202 177.589C221.183 177.323 221.183 177.055 221.202 176.789C221.239 176.495 221.353 176.216 221.532 175.979C221.704 175.738 221.933 175.542 222.197 175.408C222.462 175.273 222.755 175.205 223.052 175.209L306.692 175.669L321.142 175.769H322.702C322.977 175.769 323.247 175.836 323.491 175.963C323.735 176.09 323.944 176.274 324.102 176.499C324.384 176.934 324.498 177.457 324.422 177.969C324.422 178.439 324.422 178.909 324.422 179.359C324.422 181.179 324.422 182.849 324.422 184.359C324.422 187.359 324.352 189.659 324.332 191.259C324.307 191.567 324.196 191.861 324.01 192.107C323.824 192.354 323.571 192.542 323.282 192.649C323.093 192.766 322.874 192.829 322.652 192.829Z" fill="#E0E0E0"/>
<path d="M276.302 180.85H229.262V185.26H276.302V180.85Z" fill="#316AFF"/>
<path opacity="0.2" d="M276.302 180.85H229.262V185.26H276.302V180.85Z" fill="white"/>
<path d="M247.081 206.91L221.361 206.793L221.339 211.513L247.059 211.63L247.081 206.91Z" fill="#316AFF"/>
<path opacity="0.1" d="M247.081 206.91L221.361 206.793L221.339 211.513L247.059 211.63L247.081 206.91Z" fill="black"/>
<path d="M322.002 235.891C322.204 235.866 322.404 235.829 322.602 235.781C322.881 235.692 323.138 235.544 323.355 235.348C323.573 235.151 323.746 234.91 323.862 234.641C324.019 234.237 324.081 233.802 324.042 233.371C324.042 232.891 324.042 232.371 324.042 231.791C324.042 230.631 324.042 229.311 324.042 227.791V221.441C324.09 220.981 323.988 220.518 323.752 220.121C323.505 219.713 323.117 219.411 322.662 219.271C322.164 219.182 321.657 219.155 321.152 219.191H306.762L223.412 218.881C222.964 218.882 222.531 219.046 222.194 219.342C221.858 219.638 221.64 220.046 221.582 220.491C221.582 221.441 221.582 222.491 221.582 223.491C221.582 225.491 221.582 227.491 221.582 229.491C221.582 230.491 221.582 231.491 221.582 232.491C221.545 232.958 221.565 233.428 221.642 233.891C221.767 234.296 222.024 234.648 222.372 234.891C222.741 235.125 223.175 235.237 223.612 235.211H225.002H227.892L250.022 235.321L287.492 235.551L312.752 235.751L319.622 235.831H312.752H287.492L250.002 235.791L227.872 235.711H223.522C222.981 235.743 222.444 235.599 221.992 235.301C221.537 234.986 221.205 234.523 221.052 233.991C220.962 233.483 220.935 232.966 220.972 232.451C220.972 231.451 220.972 230.451 220.972 229.451C220.972 227.451 220.972 225.451 220.972 223.451C220.972 222.451 220.972 221.451 220.972 220.451C221.045 219.879 221.324 219.353 221.756 218.972C222.189 218.591 222.745 218.381 223.322 218.381L306.672 218.841L321.062 218.951C321.598 218.918 322.136 218.955 322.662 219.061C323.181 219.231 323.62 219.587 323.892 220.061C324.151 220.501 324.263 221.013 324.212 221.521C324.212 221.991 324.212 222.451 324.212 222.911C324.212 224.721 324.212 226.381 324.212 227.911C324.212 229.441 324.212 230.731 324.212 231.911C324.212 232.481 324.212 233.011 324.212 233.501C324.248 233.948 324.176 234.397 324.002 234.811C323.872 235.087 323.684 235.331 323.451 235.528C323.218 235.725 322.946 235.869 322.652 235.951C322.433 235.969 322.213 235.949 322.002 235.891Z" fill="#E0E0E0"/>
<path d="M246.887 251.837L221.167 251.721L221.146 256.441L246.865 256.557L246.887 251.837Z" fill="#316AFF"/>
<path opacity="0.1" d="M246.887 251.837L221.167 251.721L221.146 256.441L246.865 256.557L246.887 251.837Z" fill="black"/>
<path d="M321.802 280.8C322.004 280.776 322.204 280.74 322.402 280.69C322.68 280.602 322.936 280.455 323.153 280.261C323.37 280.066 323.544 279.827 323.662 279.56C323.818 279.156 323.88 278.722 323.842 278.29C323.842 277.8 323.842 277.29 323.842 276.7C323.842 275.55 323.842 274.22 323.842 272.7V266.35C323.889 265.89 323.788 265.428 323.552 265.03C323.299 264.63 322.913 264.332 322.462 264.19C321.964 264.098 321.457 264.067 320.952 264.1H306.562L223.212 263.79C222.763 263.791 222.331 263.955 221.994 264.251C221.657 264.547 221.44 264.956 221.382 265.4C221.382 266.4 221.382 267.4 221.382 268.4C221.382 270.4 221.382 272.4 221.382 274.4C221.382 275.4 221.382 276.4 221.382 277.4C221.344 277.864 221.365 278.331 221.442 278.79C221.561 279.198 221.82 279.552 222.172 279.79C222.539 280.03 222.974 280.142 223.412 280.11H227.762L249.892 280.23L287.362 280.46L312.622 280.66L319.492 280.74H312.622H287.362L249.892 280.63L227.762 280.54H223.412C222.87 280.577 222.332 280.432 221.882 280.13C221.427 279.815 221.095 279.352 220.942 278.82C220.852 278.312 220.825 277.795 220.862 277.28C220.862 276.28 220.862 275.28 220.862 274.28C220.862 272.28 220.862 270.28 220.862 268.28C220.862 267.28 220.862 266.28 220.862 265.23C220.932 264.659 221.209 264.134 221.64 263.753C222.071 263.371 222.626 263.161 223.202 263.16L306.552 263.62L320.942 263.73C321.478 263.697 322.015 263.734 322.542 263.84C323.061 264.01 323.499 264.366 323.772 264.84C324.03 265.281 324.142 265.792 324.092 266.3C324.092 266.77 324.092 267.24 324.092 267.69C324.092 269.5 324.092 271.16 324.092 272.69C324.092 274.22 324.092 275.51 324.092 276.69C324.092 277.26 324.092 277.79 324.092 278.28C324.13 278.727 324.058 279.177 323.882 279.59C323.752 279.866 323.564 280.111 323.331 280.307C323.098 280.504 322.825 280.648 322.532 280.73C322.297 280.81 322.047 280.834 321.802 280.8Z" fill="#E0E0E0"/>
<path d="M275.297 225.157L228.258 224.943L228.238 229.353L275.277 229.567L275.297 225.157Z" fill="#316AFF"/>
<path opacity="0.2" d="M275.297 225.157L228.258 224.943L228.238 229.353L275.277 229.567L275.297 225.157Z" fill="white"/>
<path d="M232.512 272.64C232.482 273.043 232.335 273.427 232.089 273.747C231.843 274.066 231.508 274.307 231.127 274.438C230.746 274.569 230.334 274.585 229.943 274.485C229.553 274.384 229.2 274.171 228.93 273.872C228.659 273.573 228.482 273.201 228.421 272.802C228.36 272.404 228.417 271.996 228.585 271.629C228.754 271.263 229.026 270.954 229.369 270.741C229.711 270.528 230.109 270.42 230.512 270.43C231.069 270.461 231.591 270.711 231.966 271.125C232.34 271.538 232.536 272.083 232.512 272.64Z" fill="#316AFF"/>
<path d="M238.882 272.67C238.902 272.952 238.863 273.235 238.769 273.501C238.674 273.768 238.526 274.012 238.333 274.219C238.141 274.425 237.907 274.59 237.648 274.703C237.389 274.816 237.109 274.874 236.827 274.874C236.544 274.874 236.265 274.816 236.005 274.703C235.746 274.59 235.513 274.425 235.32 274.219C235.128 274.012 234.979 273.768 234.885 273.501C234.791 273.235 234.752 272.952 234.772 272.67C234.752 272.388 234.791 272.105 234.885 271.839C234.979 271.573 235.128 271.328 235.32 271.122C235.513 270.915 235.746 270.75 236.005 270.638C236.265 270.525 236.544 270.467 236.827 270.467C237.109 270.467 237.389 270.525 237.648 270.638C237.907 270.75 238.141 270.915 238.333 271.122C238.526 271.328 238.674 271.573 238.769 271.839C238.863 272.105 238.902 272.388 238.882 272.67Z" fill="#316AFF"/>
<path d="M245.262 272.699C245.232 273.101 245.085 273.486 244.839 273.805C244.593 274.125 244.258 274.365 243.877 274.496C243.496 274.627 243.084 274.644 242.693 274.543C242.303 274.443 241.95 274.23 241.68 273.931C241.409 273.632 241.232 273.26 241.171 272.861C241.11 272.462 241.167 272.054 241.335 271.688C241.504 271.321 241.776 271.013 242.119 270.799C242.461 270.586 242.859 270.478 243.262 270.489C243.818 270.523 244.339 270.773 244.713 271.186C245.087 271.599 245.284 272.142 245.262 272.699Z" fill="#316AFF"/>
<path d="M251.632 272.73C251.602 273.133 251.455 273.517 251.209 273.837C250.963 274.156 250.629 274.396 250.247 274.528C249.866 274.659 249.454 274.675 249.064 274.574C248.673 274.474 248.321 274.261 248.05 273.962C247.779 273.663 247.602 273.291 247.541 272.892C247.48 272.494 247.537 272.086 247.706 271.719C247.874 271.353 248.146 271.044 248.489 270.831C248.831 270.618 249.229 270.51 249.632 270.52C250.188 270.554 250.709 270.804 251.083 271.217C251.457 271.63 251.654 272.174 251.632 272.73Z" fill="#316AFF"/>
<path d="M258.002 272.75C257.974 273.152 257.829 273.538 257.584 273.859C257.339 274.18 257.005 274.422 256.623 274.555C256.242 274.687 255.83 274.705 255.439 274.605C255.047 274.506 254.694 274.293 254.422 273.995C254.151 273.696 253.973 273.324 253.911 272.925C253.849 272.526 253.906 272.117 254.074 271.75C254.242 271.383 254.515 271.074 254.857 270.86C255.2 270.647 255.598 270.539 256.002 270.55C256.556 270.583 257.075 270.832 257.449 271.243C257.823 271.654 258.021 272.195 258.002 272.75Z" fill="#316AFF"/>
<path d="M264.382 272.78C264.355 273.181 264.211 273.565 263.968 273.885C263.725 274.205 263.394 274.447 263.016 274.581C262.637 274.716 262.228 274.737 261.837 274.641C261.447 274.546 261.093 274.338 260.82 274.044C260.546 273.751 260.364 273.383 260.296 272.987C260.228 272.591 260.278 272.184 260.439 271.816C260.599 271.448 260.864 271.135 261.201 270.915C261.537 270.696 261.93 270.579 262.332 270.58C262.895 270.601 263.427 270.844 263.811 271.257C264.196 271.669 264.401 272.217 264.382 272.78Z" fill="#316AFF"/>
<path d="M270.752 272.811C270.771 273.093 270.733 273.376 270.638 273.642C270.544 273.909 270.396 274.153 270.203 274.359C270.01 274.566 269.777 274.731 269.518 274.843C269.259 274.956 268.979 275.014 268.697 275.014C268.414 275.014 268.135 274.956 267.875 274.843C267.616 274.731 267.383 274.566 267.19 274.359C266.997 274.153 266.849 273.909 266.755 273.642C266.661 273.376 266.622 273.093 266.642 272.811C266.622 272.529 266.661 272.246 266.755 271.98C266.849 271.713 266.997 271.469 267.19 271.262C267.383 271.056 267.616 270.891 267.875 270.778C268.135 270.666 268.414 270.607 268.697 270.607C268.979 270.607 269.259 270.666 269.518 270.778C269.777 270.891 270.01 271.056 270.203 271.262C270.396 271.469 270.544 271.713 270.638 271.98C270.733 272.246 270.771 272.529 270.752 272.811Z" fill="#316AFF"/>
<path d="M277.122 272.841C277.095 273.241 276.951 273.625 276.708 273.945C276.465 274.266 276.134 274.508 275.756 274.642C275.377 274.776 274.967 274.797 274.577 274.702C274.187 274.606 273.833 274.399 273.559 274.105C273.286 273.811 273.104 273.444 273.036 273.048C272.968 272.652 273.018 272.245 273.179 271.876C273.339 271.508 273.604 271.195 273.941 270.976C274.277 270.756 274.67 270.64 275.072 270.641C275.635 270.661 276.167 270.905 276.551 271.317C276.936 271.729 277.141 272.277 277.122 272.841Z" fill="#316AFF"/>
<path d="M283.492 272.871C283.464 273.273 283.319 273.659 283.074 273.98C282.829 274.301 282.495 274.543 282.113 274.676C281.732 274.808 281.32 274.826 280.929 274.726C280.537 274.627 280.184 274.414 279.912 274.116C279.641 273.817 279.463 273.445 279.401 273.046C279.339 272.647 279.396 272.238 279.564 271.871C279.732 271.504 280.005 271.195 280.347 270.981C280.69 270.768 281.088 270.66 281.492 270.671C282.046 270.704 282.565 270.953 282.939 271.364C283.313 271.775 283.511 272.316 283.492 272.871Z" fill="#316AFF"/>
<g opacity="0.2">
<path d="M232.512 272.64C232.482 273.043 232.335 273.427 232.089 273.747C231.843 274.066 231.508 274.307 231.127 274.438C230.746 274.569 230.334 274.585 229.943 274.485C229.553 274.384 229.2 274.171 228.93 273.872C228.659 273.573 228.482 273.201 228.421 272.802C228.36 272.404 228.417 271.996 228.585 271.629C228.754 271.263 229.026 270.954 229.369 270.741C229.711 270.528 230.109 270.42 230.512 270.43C231.069 270.461 231.591 270.711 231.966 271.125C232.34 271.538 232.536 272.083 232.512 272.64Z" fill="white"/>
<path d="M238.882 272.67C238.901 272.952 238.863 273.235 238.768 273.501C238.674 273.768 238.526 274.012 238.333 274.219C238.14 274.425 237.907 274.59 237.648 274.703C237.389 274.816 237.109 274.874 236.827 274.874C236.544 274.874 236.264 274.816 236.005 274.703C235.746 274.59 235.513 274.425 235.32 274.219C235.127 274.012 234.979 273.768 234.885 273.501C234.79 273.235 234.752 272.952 234.772 272.67C234.752 272.388 234.79 272.105 234.885 271.839C234.979 271.573 235.127 271.328 235.32 271.122C235.513 270.915 235.746 270.75 236.005 270.638C236.264 270.525 236.544 270.467 236.827 270.467C237.109 270.467 237.389 270.525 237.648 270.638C237.907 270.75 238.14 270.915 238.333 271.122C238.526 271.328 238.674 271.573 238.768 271.839C238.863 272.105 238.901 272.388 238.882 272.67Z" fill="white"/>
<path d="M245.262 272.701C245.232 273.103 245.085 273.488 244.839 273.807C244.593 274.127 244.258 274.367 243.877 274.498C243.496 274.629 243.084 274.646 242.693 274.545C242.303 274.445 241.95 274.232 241.68 273.933C241.409 273.633 241.232 273.262 241.171 272.863C241.11 272.464 241.167 272.056 241.335 271.69C241.504 271.323 241.776 271.014 242.119 270.801C242.461 270.588 242.859 270.48 243.262 270.491C243.818 270.525 244.339 270.775 244.713 271.188C245.087 271.601 245.284 272.144 245.262 272.701Z" fill="white"/>
<path d="M251.632 272.73C251.602 273.133 251.455 273.517 251.209 273.837C250.963 274.156 250.628 274.396 250.247 274.528C249.865 274.659 249.454 274.675 249.063 274.574C248.673 274.474 248.32 274.261 248.05 273.962C247.779 273.663 247.602 273.291 247.541 272.892C247.48 272.494 247.537 272.086 247.705 271.719C247.874 271.353 248.146 271.044 248.489 270.831C248.831 270.618 249.228 270.51 249.632 270.52C250.188 270.554 250.709 270.804 251.083 271.217C251.456 271.63 251.654 272.174 251.632 272.73Z" fill="white"/>
<path d="M258.002 272.75C257.974 273.152 257.829 273.538 257.584 273.859C257.339 274.18 257.005 274.422 256.623 274.555C256.242 274.687 255.83 274.705 255.439 274.605C255.047 274.506 254.694 274.293 254.422 273.995C254.151 273.696 253.973 273.324 253.911 272.925C253.849 272.526 253.906 272.117 254.074 271.75C254.242 271.383 254.515 271.074 254.857 270.86C255.2 270.647 255.598 270.539 256.002 270.55C256.556 270.583 257.075 270.832 257.449 271.243C257.823 271.654 258.021 272.195 258.002 272.75Z" fill="white"/>
<path d="M264.382 272.78C264.354 273.181 264.21 273.565 263.968 273.885C263.725 274.205 263.394 274.447 263.015 274.581C262.637 274.716 262.227 274.737 261.837 274.641C261.447 274.546 261.093 274.338 260.819 274.044C260.545 273.751 260.363 273.383 260.296 272.987C260.228 272.591 260.278 272.184 260.438 271.816C260.599 271.448 260.864 271.135 261.2 270.915C261.537 270.696 261.93 270.579 262.332 270.58C262.895 270.601 263.427 270.844 263.811 271.257C264.195 271.669 264.401 272.217 264.382 272.78Z" fill="white"/>
<path d="M270.752 272.811C270.771 273.093 270.733 273.376 270.638 273.642C270.544 273.909 270.396 274.153 270.203 274.359C270.01 274.566 269.777 274.731 269.518 274.843C269.259 274.956 268.979 275.014 268.697 275.014C268.414 275.014 268.135 274.956 267.875 274.843C267.616 274.731 267.383 274.566 267.19 274.359C266.997 274.153 266.849 273.909 266.755 273.642C266.661 273.376 266.622 273.093 266.642 272.811C266.622 272.529 266.661 272.246 266.755 271.98C266.849 271.713 266.997 271.469 267.19 271.262C267.383 271.056 267.616 270.891 267.875 270.778C268.135 270.666 268.414 270.607 268.697 270.607C268.979 270.607 269.259 270.666 269.518 270.778C269.777 270.891 270.01 271.056 270.203 271.262C270.396 271.469 270.544 271.713 270.638 271.98C270.733 272.246 270.771 272.529 270.752 272.811Z" fill="white"/>
<path d="M277.122 272.841C277.094 273.241 276.95 273.625 276.708 273.945C276.465 274.266 276.134 274.508 275.755 274.642C275.377 274.776 274.967 274.797 274.577 274.702C274.187 274.606 273.833 274.399 273.559 274.105C273.285 273.811 273.103 273.444 273.036 273.048C272.968 272.652 273.018 272.245 273.178 271.876C273.339 271.508 273.604 271.195 273.94 270.976C274.277 270.756 274.67 270.64 275.072 270.641C275.635 270.661 276.167 270.905 276.551 271.317C276.935 271.729 277.14 272.277 277.122 272.841Z" fill="white"/>
<path d="M283.492 272.871C283.464 273.273 283.319 273.659 283.074 273.98C282.829 274.301 282.495 274.543 282.113 274.676C281.732 274.808 281.32 274.826 280.929 274.726C280.537 274.627 280.184 274.414 279.912 274.116C279.641 273.817 279.463 273.445 279.401 273.046C279.339 272.647 279.396 272.238 279.564 271.871C279.732 271.504 280.005 271.195 280.347 270.981C280.69 270.768 281.088 270.66 281.492 270.671C282.046 270.704 282.565 270.953 282.939 271.364C283.313 271.775 283.511 272.316 283.492 272.871Z" fill="white"/>
</g>
<path d="M274.442 128.511C275.137 128.205 275.726 127.701 276.137 127.063C276.547 126.425 276.761 125.68 276.752 124.921C276.778 124.427 276.703 123.934 276.532 123.47C276.361 123.007 276.097 122.583 275.757 122.224C275.417 121.866 275.008 121.581 274.554 121.385C274.1 121.19 273.611 121.09 273.117 121.09C272.623 121.09 272.134 121.19 271.68 121.385C271.226 121.581 270.816 121.866 270.476 122.224C270.136 122.583 269.873 123.007 269.702 123.47C269.531 123.934 269.456 124.427 269.482 124.921C269.467 125.687 269.679 126.441 270.092 127.087C270.505 127.733 271.1 128.242 271.802 128.551C266.202 129.391 266.452 135.471 266.452 135.471L279.692 135.531C279.692 135.531 280.002 129.341 274.442 128.511Z" fill="#316AFF"/>
<path opacity="0.1" d="M274.442 128.511C275.137 128.205 275.726 127.701 276.137 127.063C276.547 126.425 276.761 125.68 276.752 124.921C276.778 124.427 276.703 123.934 276.532 123.47C276.361 123.007 276.097 122.583 275.757 122.224C275.417 121.866 275.008 121.581 274.554 121.385C274.1 121.19 273.611 121.09 273.117 121.09C272.623 121.09 272.134 121.19 271.68 121.385C271.226 121.581 270.816 121.866 270.476 122.224C270.136 122.583 269.873 123.007 269.702 123.47C269.531 123.934 269.456 124.427 269.482 124.921C269.467 125.687 269.679 126.441 270.092 127.087C270.505 127.733 271.1 128.242 271.802 128.551C266.202 129.391 266.452 135.471 266.452 135.471L279.692 135.531C279.692 135.531 280.002 129.341 274.442 128.511Z" fill="black"/>
<path d="M295.956 139.45L248.767 139.236L248.741 144.876L295.931 145.09L295.956 139.45Z" fill="#316AFF"/>
<path opacity="0.2" d="M295.956 139.45L248.767 139.236L248.741 144.876L295.931 145.09L295.956 139.45Z" fill="white"/>
<path d="M171.151 448.34V439.79L155.821 439.68L155.691 452.61L156.641 452.68C160.871 452.95 178.161 453.35 181.001 452.47C184.161 451.49 171.151 448.34 171.151 448.34Z" fill="#FE8111"/>
<path d="M181.361 451.67C181.361 451.81 175.621 451.93 168.551 451.93C161.481 451.93 155.741 451.81 155.741 451.67C155.741 451.53 161.481 451.41 168.551 451.41C175.621 451.41 181.361 451.53 181.361 451.67Z" fill="#263238"/>
<path d="M171.421 450.089C171.291 450.019 171.421 449.569 171.731 449.089C172.041 448.609 172.461 448.409 172.561 448.509C172.661 448.609 172.451 448.989 172.151 449.399C171.851 449.809 171.551 450.159 171.421 450.089Z" fill="#263238"/>
<path d="M172.401 450.65C172.261 450.65 172.331 450.09 172.631 449.56C172.931 449.03 173.331 448.71 173.441 448.79C173.551 448.87 173.371 449.32 173.091 449.79C172.811 450.26 172.531 450.7 172.401 450.65Z" fill="#263238"/>
<path d="M160.361 451.63C160.301 451.63 160.071 451.45 159.741 451.07C159.338 450.581 158.889 450.132 158.401 449.73C157.921 449.346 157.348 449.094 156.741 449C156.271 448.94 155.971 449 155.941 448.94C155.911 448.88 156.201 448.67 156.751 448.63C157.477 448.614 158.185 448.855 158.751 449.31C159.281 449.742 159.729 450.267 160.071 450.86C160.301 451.3 160.421 451.59 160.361 451.63Z" fill="#263238"/>
<path d="M171.471 448.481C171.541 448.601 171.281 448.901 170.841 449.061C170.401 449.221 170.011 449.161 169.991 449.061C169.971 448.961 170.281 448.751 170.661 448.611C171.041 448.471 171.391 448.361 171.471 448.481Z" fill="#263238"/>
<path d="M171.231 447.651C171.231 447.801 170.831 447.921 170.311 447.931C169.791 447.941 169.381 447.821 169.391 447.681C169.401 447.541 169.811 447.411 170.311 447.401C170.811 447.391 171.211 447.511 171.231 447.651Z" fill="#263238"/>
<path d="M208.901 448.34V439.79L193.571 439.68L193.441 452.48L194.391 452.55C198.621 452.82 215.921 453.35 218.751 452.47C221.911 451.49 208.901 448.34 208.901 448.34Z" fill="#FE8111"/>
<path d="M219.111 451.69C219.111 451.83 213.381 451.95 206.301 451.95C199.221 451.95 193.501 451.83 193.501 451.69C193.501 451.55 199.231 451.43 206.301 451.43C213.371 451.43 219.111 451.55 219.111 451.69Z" fill="#263238"/>
<path d="M209.171 450.089C209.051 450.019 209.171 449.569 209.481 449.089C209.791 448.609 210.211 448.409 210.311 448.509C210.411 448.609 210.201 448.989 209.901 449.399C209.601 449.809 209.301 450.159 209.171 450.089Z" fill="#263238"/>
<path d="M210.151 450.65C210.021 450.65 210.081 450.09 210.391 449.56C210.701 449.03 211.091 448.71 211.201 448.79C211.311 448.87 211.121 449.32 210.841 449.79C210.561 450.26 210.291 450.7 210.151 450.65Z" fill="#263238"/>
<path d="M198.111 451.63C198.051 451.63 197.831 451.45 197.491 451.07C197.088 450.581 196.639 450.132 196.151 449.73C195.671 449.346 195.098 449.094 194.491 449C194.031 448.94 193.721 449 193.691 448.94C193.661 448.88 193.951 448.67 194.501 448.63C195.227 448.614 195.935 448.855 196.501 449.31C197.034 449.739 197.482 450.265 197.821 450.86C198.051 451.3 198.171 451.59 198.111 451.63Z" fill="#263238"/>
<path d="M209.221 448.481C209.291 448.601 209.031 448.901 208.591 449.061C208.151 449.221 207.761 449.161 207.741 449.061C207.721 448.961 208.031 448.751 208.411 448.611C208.791 448.471 209.141 448.361 209.221 448.481Z" fill="#263238"/>
<path d="M209.001 447.651C209.001 447.801 208.601 447.921 208.081 447.931C207.561 447.941 207.161 447.821 207.171 447.681C207.181 447.541 207.581 447.411 208.081 447.401C208.581 447.391 209.001 447.511 209.001 447.651Z" fill="#263238"/>
<path d="M265.381 194.441C264.981 194.031 263.991 194.231 263.991 194.231C264.09 193.655 264.09 193.067 263.991 192.491C263.811 191.931 262.551 192.041 262.551 192.041C262.493 191.569 262.493 191.092 262.551 190.621C262.561 190.516 262.539 190.411 262.487 190.32C262.435 190.229 262.356 190.156 262.261 190.111C261.665 189.868 261.024 189.752 260.381 189.771C259.611 189.221 262.731 184.851 263.891 183.451C265.051 182.051 264.841 180.961 263.811 180.961C263.101 180.961 259.461 185.161 258.341 186.571C257.221 187.981 254.251 191.901 254.151 188.771C254.051 185.641 252.791 183.281 252.001 182.881C251.211 182.481 250.371 183.421 250.801 184.291C251.179 185.279 251.414 186.316 251.501 187.371C251.61 188.211 251.572 189.064 251.391 189.891C251.059 191.43 250.608 192.942 250.041 194.411H249.961C249.961 194.411 228.141 215.341 226.561 216.831C225.151 218.171 196.791 215.241 191.101 214.641C189.167 214.358 187.215 214.224 185.261 214.241C182.791 214.351 182.351 214.701 179.891 214.731C173.678 214.8 167.48 215.345 161.351 216.361C158.576 216.833 155.983 218.058 153.856 219.902C151.73 221.747 150.15 224.14 149.291 226.821C143.561 244.721 130.581 287.091 128.291 310.891C126.56 314.029 124.998 317.257 123.611 320.561C122.001 324.941 122.391 325.091 122.931 325.191C124.391 325.461 126.051 317.601 126.671 319.501C127.291 321.401 123.521 328.871 125.051 329.091C127.051 329.371 128.641 321.091 128.831 320.431C129.021 319.771 130.011 319.981 129.831 320.601C129.541 321.481 126.731 330.811 128.691 331.111C129.771 331.271 129.891 329.301 129.891 329.301C129.891 329.301 131.891 320.371 132.801 320.551C133.711 320.731 132.741 326.001 132.281 327.761C131.821 329.521 132.461 330.411 133.401 329.981C134.041 329.681 135.571 324.331 135.991 322.591C136.411 320.851 137.461 316.031 138.871 318.821C140.281 321.611 142.421 323.231 143.301 323.271C143.499 323.248 143.686 323.166 143.838 323.036C143.989 322.906 144.098 322.734 144.151 322.542C144.204 322.349 144.197 322.145 144.133 321.956C144.069 321.767 143.95 321.602 143.791 321.481C143.034 320.742 142.384 319.9 141.861 318.981C141.394 318.265 141.056 317.473 140.861 316.641C140.458 314.982 140.223 313.287 140.161 311.581L140.001 310.581C142.241 299.491 148.691 266.941 158.001 246.151L161.821 254.011L163.481 259.831L153.301 284.961L196.721 284.391L190.241 259.451L198.111 233.451C206.621 233.641 228.471 233.961 232.111 232.311C236.691 230.311 260.381 200.391 260.381 200.391C261.925 199.191 263.404 197.909 264.811 196.551C264.811 196.551 266.251 195.341 265.381 194.441Z" fill="#FFBE9D"/>
<path d="M151.391 266.39C152.651 262.09 159.121 240.83 159.121 240.83C159.121 240.83 162.301 258.16 161.461 260.25C160.688 262.039 159.775 263.764 158.731 265.41C151.391 276.58 152.351 282.17 152.351 282.17L196.701 280.82C196.801 274.62 193.131 260.2 192.371 257.9C191.611 255.6 194.141 248.07 194.141 248.07C194.141 248.07 199.141 242.98 198.961 240.36C198.866 238.006 198.575 235.665 198.091 233.36L225.091 234.36L224.241 216.06L185.461 212.18C184.111 215.99 171.901 214.12 171.901 214.12C158.721 214.56 157.901 216.98 152.421 221.24C146.941 225.5 137.871 262.06 137.871 262.06L151.391 266.39Z" fill="#FE8111"/>
<path d="M177.611 262.061C176.842 262.198 176.06 262.238 175.281 262.181C173.831 262.181 171.841 262.081 169.651 261.861C167.461 261.641 165.481 261.331 164.071 261.051C163.294 260.951 162.531 260.756 161.801 260.471C162.583 260.471 163.363 260.545 164.131 260.691C165.551 260.871 167.521 261.121 169.701 261.341C171.881 261.561 173.861 261.711 175.291 261.811C176.071 261.821 176.847 261.904 177.611 262.061Z" fill="#263238"/>
<path d="M180.651 258.291C179.882 258.668 179.069 258.946 178.231 259.121C174.241 260.169 170.125 260.657 166.001 260.571C165.148 260.599 164.294 260.518 163.461 260.331C164.303 260.225 165.152 260.181 166.001 260.201C167.571 260.151 169.731 260.041 172.111 259.761C174.491 259.481 176.611 259.081 178.111 258.761C178.944 258.539 179.793 258.381 180.651 258.291Z" fill="#263238"/>
<path d="M195.571 241.471C195.551 242.233 195.447 242.991 195.261 243.731C195.001 245.121 194.601 247.021 194.091 249.101C193.581 251.181 193.091 253.101 192.651 254.401C192.474 255.145 192.212 255.866 191.871 256.551C191.927 255.791 192.067 255.039 192.291 254.311C192.671 252.751 193.101 250.951 193.581 248.981C194.061 247.011 194.521 245.211 194.901 243.651C195.036 242.9 195.261 242.168 195.571 241.471Z" fill="#263238"/>
<path d="M151.861 263.84C149.548 263.483 147.264 262.952 145.031 262.25C142.749 261.717 140.509 261.015 138.331 260.15C140.643 260.513 142.926 261.045 145.161 261.74C147.444 262.272 149.683 262.974 151.861 263.84Z" fill="#263238"/>
<path d="M198.571 233.141C198.194 233.206 197.808 233.206 197.431 233.141C196.386 233.034 195.361 232.788 194.381 232.411C192.745 231.796 191.256 230.846 190.009 229.621C188.762 228.397 187.785 226.925 187.141 225.301C186.429 223.514 186.125 221.59 186.251 219.671C186.296 218.087 186.769 216.546 187.621 215.211C188.22 214.311 189.115 213.65 190.151 213.341C190.428 213.264 190.714 213.227 191.001 213.231C191.201 213.231 191.301 213.231 191.301 213.231C191.301 213.231 190.881 213.231 190.211 213.501C189.261 213.852 188.455 214.51 187.921 215.371C186.561 217.511 186.181 221.421 187.631 225.071C188.306 226.792 189.362 228.337 190.721 229.591C191.834 230.616 193.116 231.442 194.511 232.031C195.82 232.548 197.181 232.92 198.571 233.141Z" fill="#263238"/>
<path d="M221.881 234C221.631 230.934 221.551 227.856 221.641 224.78C221.563 221.707 221.656 218.633 221.921 215.57C222.171 218.634 222.251 221.708 222.161 224.78C222.245 227.856 222.151 230.935 221.881 234Z" fill="#263238"/>
<path d="M185.201 213.3C185.311 211.07 185.541 208.55 185.541 208.55C185.541 208.55 191.061 207.94 191.391 202.24C191.721 196.54 191.391 183.39 191.391 183.39L181.391 178.27L170.291 187L172.001 215.5L182.181 216.15C182.959 216.171 183.714 215.883 184.28 215.349C184.846 214.815 185.177 214.078 185.201 213.3Z" fill="#FFBE9D"/>
<path d="M186.191 197.73C186.191 197.73 186.191 197.84 186.101 197.97C186.027 198.064 185.93 198.139 185.821 198.188C185.711 198.237 185.591 198.258 185.471 198.25C184.831 198.25 184.211 197.51 183.991 196.65C183.886 196.233 183.886 195.797 183.991 195.38C184.012 195.198 184.077 195.024 184.182 194.874C184.287 194.724 184.427 194.602 184.591 194.52C184.726 194.465 184.877 194.465 185.011 194.52C185.111 194.57 185.192 194.65 185.241 194.75C185.311 194.92 185.241 195.03 185.241 195.02C185.241 195.01 185.241 194.92 185.141 194.82C185.089 194.749 185.012 194.699 184.925 194.68C184.838 194.662 184.748 194.676 184.671 194.72C184.548 194.794 184.446 194.898 184.375 195.022C184.303 195.147 184.264 195.287 184.261 195.43C184.177 195.802 184.177 196.188 184.261 196.56C184.461 197.34 185.001 197.97 185.481 198.03C185.575 198.043 185.67 198.036 185.762 198.01C185.853 197.985 185.938 197.94 186.011 197.88C186.131 197.8 186.171 197.72 186.191 197.73Z" fill="#EB996E"/>
<path d="M194.821 180.31C194.051 177.69 191.261 176.39 188.721 175.67C184.851 174.57 180.671 174.09 176.891 175.48C173.111 176.87 168.571 179.31 168.571 183.48C166.341 183.3 165.061 185.25 164.181 187.67C163.618 189.145 163.281 190.695 163.181 192.27C162.901 197.73 161.371 205.27 157.831 209.27C155.831 211.5 153.061 213.04 151.921 215.82C150.921 218.23 151.441 221.09 150.511 223.53C149.681 225.68 147.851 227.21 146.511 229.08C145.146 231.202 144.342 233.635 144.176 236.153C144.01 238.67 144.486 241.188 145.561 243.47C146.643 245.694 148.167 247.675 150.039 249.291C151.911 250.907 154.093 252.125 156.451 252.87C161.122 254.291 166.103 254.34 170.801 253.01C174.327 252.167 177.616 250.536 180.421 248.24C183.291 245.896 185.263 242.632 186.001 239C186.711 234.92 185.571 230.77 184.721 226.71C182.061 213.88 182.821 213.21 186.181 201.3C186.261 201.09 186.301 200.87 186.361 200.66C186.421 200.45 186.451 200.35 186.491 200.19C186.586 199.719 186.637 199.241 186.641 198.76C186.15 198.943 185.617 198.981 185.106 198.872C184.594 198.762 184.124 198.508 183.751 198.14C183.377 197.748 183.117 197.262 182.997 196.734C182.877 196.206 182.903 195.655 183.071 195.14C183.307 194.577 183.658 194.07 184.103 193.651C184.547 193.233 185.075 192.912 185.651 192.71C186.761 192.25 187.951 192.01 189.041 191.5C191.351 190.4 192.951 188.12 194.041 185.73C194.937 184.074 195.214 182.152 194.821 180.31Z" fill="#263238"/>
<path d="M186.591 198C186.802 198.312 186.977 198.648 187.111 199C187.411 199.63 187.811 200.52 188.251 201.55L188.331 201.74H188.121L187.121 201.83C186.431 201.83 185.851 201.96 185.171 201.95C185.112 201.937 185.057 201.909 185.011 201.868C184.966 201.828 184.931 201.777 184.911 201.72C184.881 201.629 184.881 201.531 184.911 201.44C184.934 201.305 184.964 201.172 185.001 201.04L185.181 200.33C185.271 199.856 185.412 199.394 185.601 198.95C185.582 199.433 185.512 199.912 185.391 200.38L185.251 201.09C185.201 201.33 185.111 201.7 185.251 201.67C185.751 201.67 186.461 201.56 187.121 201.52L188.121 201.43L187.991 201.65C187.561 200.65 187.201 199.71 186.991 199.06C186.807 198.728 186.672 198.371 186.591 198Z" fill="#316AFF"/>
<path d="M152.351 282.17L196.701 280.82L216.001 356.16L212.451 442.58H189.001L191.871 358L174.721 305.55L177.361 445.93L153.661 446.28L151.171 314.33C151.061 310.66 149.861 302.39 150.311 298.75L152.351 282.17Z" fill="#263238"/>
<path d="M180.621 306.62C179.895 306.666 179.166 306.622 178.451 306.49C177.111 306.33 175.281 306.05 173.271 305.65C171.261 305.25 169.461 304.79 168.161 304.42C167.466 304.268 166.794 304.026 166.161 303.7C166.161 303.55 169.421 304.33 173.421 305.14C177.421 305.95 180.641 306.47 180.621 306.62Z" fill="#455A64"/>
<path d="M212.211 437.84C212.211 437.98 206.901 438.1 200.351 438.1C193.801 438.1 188.481 437.98 188.481 437.84C188.481 437.7 193.791 437.58 200.351 437.58C206.911 437.58 212.211 437.69 212.211 437.84Z" fill="#455A64"/>
<path d="M177.151 442.28C177.151 442.43 171.991 442.54 165.631 442.54C159.271 442.54 154.121 442.43 154.121 442.28C154.121 442.13 159.281 442.02 165.631 442.02C171.981 442.02 177.151 442.14 177.151 442.28Z" fill="#455A64"/>
<path d="M174.091 441.92C173.951 441.92 173.331 411.25 172.701 373.42C172.071 335.59 171.701 304.9 171.831 304.9C171.961 304.9 172.601 335.56 173.221 373.41C173.841 411.26 174.241 441.92 174.091 441.92Z" fill="#455A64"/>
<path d="M209.061 437.84C209.05 437.703 209.05 437.566 209.061 437.43V436.23C209.061 435.15 209.141 433.6 209.201 431.63C209.341 427.63 209.541 421.82 209.791 414.7C210.331 400.38 211.091 380.64 211.921 358.85C211.921 358.64 211.921 358.44 211.921 358.26V358.33C206.671 337.33 201.921 318.27 198.471 304.48L194.471 288.17C194.011 286.26 193.661 284.77 193.411 283.73C193.291 283.24 193.211 282.86 193.141 282.57C193.102 282.44 193.079 282.306 193.071 282.17C193.123 282.296 193.163 282.426 193.191 282.56C193.271 282.84 193.371 283.22 193.511 283.7C193.781 284.7 194.171 286.22 194.671 288.12C195.671 291.98 197.081 297.54 198.841 304.39C202.321 318.17 207.121 337.18 212.441 358.21V358.28C212.441 358.46 212.441 358.67 212.441 358.87C211.551 380.66 210.741 400.39 210.151 414.71C209.841 421.84 209.581 427.61 209.401 431.63C209.301 433.63 209.221 435.15 209.171 436.23C209.171 436.74 209.111 437.14 209.101 437.43C209.103 437.568 209.089 437.705 209.061 437.84Z" fill="#455A64"/>
<path d="M201.411 356.5C199.727 357.054 197.991 357.439 196.231 357.65C194.071 358.02 192.231 358.28 191.401 358.32V358.12C191.671 358.2 191.811 358.25 191.811 358.29C191.811 358.33 191.641 358.29 191.361 358.29H190.761L191.361 358.11C192.141 357.88 193.981 357.5 196.141 357.11C197.873 356.734 199.639 356.53 201.411 356.5Z" fill="#455A64"/>
<path d="M201.001 359.371C199.441 359.442 197.878 359.372 196.331 359.161C194.769 359.129 193.213 358.958 191.681 358.651C194.806 358.396 197.952 358.639 201.001 359.371Z" fill="#455A64"/>
<path opacity="0.2" d="M152.161 283.76C152.686 284.435 153.348 284.991 154.102 285.392C154.857 285.794 155.688 286.032 156.541 286.09C158.327 286.302 160.134 286.268 161.911 285.99C173.361 284.72 185.491 283.55 196.701 280.82C182.191 281.63 166.861 281.36 152.351 282.17L152.201 283.41" fill="black"/>
<g opacity="0.2">
<path d="M167.111 304.211L175.291 335.951L174.721 305.551L167.111 304.211Z" fill="black"/>
</g>
</svg>
