<?xml version="1.0" standalone="no"?><!DOCTYPE svg PUBLIC "-//W3C//DTD SVG 1.1//EN" "http://www.w3.org/Graphics/SVG/1.1/DTD/svg11.dtd"><svg t="1716530348401" class="icon" viewBox="0 0 1024 1024" version="1.1" xmlns="http://www.w3.org/2000/svg" p-id="2689" xmlns:xlink="http://www.w3.org/1999/xlink" width="200" height="200"><path d="M874.660373 301.651825L597.328427 21.333227a76.799616 76.799616 0 0 0-14.506594-11.519943l-4.266646-2.133322h-2.986652A71.679642 71.679642 0 0 0 546.128683 0H200.957075A72.959635 72.959635 0 0 0 127.99744 72.106306v879.782268A72.959635 72.959635 0 0 0 200.957075 1023.99488h622.930219A71.252977 71.252977 0 0 0 895.9936 951.888574V352.424905a71.679642 71.679642 0 0 0-21.333227-50.77308zM597.328427 822.182556H505.168887l-3.83998-127.99936v-69.546319c-7.679962 22.186556-15.359923 46.506434-23.893214 69.546319l-50.77308 127.99936H338.769719v-298.665174h71.252978l-5.119975 135.679322-4.69331 94.292862c11.093278-31.573175 22.61322-63.573015 34.133163-94.292862l56.319718-135.679322h59.733035l7.253297 135.679322v94.292862c9.38662-32.426505 18.773239-63.573015 27.733195-94.292862l42.666453-135.679322h68.266325z m-12.373272-511.99744V110.506114l200.958995 201.812324z" fill="#10B981" p-id="2690"></path></svg>