<svg width="18" height="18" viewBox="0 0 18 18" fill="none" xmlns="http://www.w3.org/2000/svg">
<path d="M10.9687 1.57495H7.03123C3.43123 1.57495 0.506226 4.41558 0.506226 7.90308C0.506226 11.3906 2.75623 13.8375 8.26873 16.3125C8.40935 16.3687 8.52185 16.3968 8.66248 16.3968C8.85935 16.3968 9.0281 16.3406 9.19685 16.2281C9.4781 16.0593 9.64685 15.75 9.64685 15.4125V14.2031H10.9687C14.5687 14.2031 17.5219 11.3625 17.5219 7.87495C17.5219 4.38745 14.5687 1.57495 10.9687 1.57495ZM10.9687 12.9937H9.33748C8.8031 12.9937 8.3531 13.4437 8.3531 13.9781V15.0187C3.59998 12.825 1.74373 10.8 1.74373 7.9312C1.74373 5.14683 4.10623 2.8687 7.03123 2.8687H10.9687C13.8656 2.8687 16.2562 5.14683 16.2562 7.9312C16.2562 10.7156 13.8656 12.9937 10.9687 12.9937Z" fill="#64748B"/>
<path d="M5.42812 7.28442C5.0625 7.28442 4.78125 7.56567 4.78125 7.9313C4.78125 8.29692 5.0625 8.57817 5.42812 8.57817C5.79375 8.57817 6.075 8.29692 6.075 7.9313C6.075 7.56567 5.79375 7.28442 5.42812 7.28442Z" fill="#64748B"/>
<path d="M9.00002 7.28442C8.6344 7.28442 8.35315 7.56567 8.35315 7.9313C8.35315 8.29692 8.6344 8.57817 9.00002 8.57817C9.33752 8.57817 9.6469 8.29692 9.6469 7.9313C9.6469 7.56567 9.33752 7.28442 9.00002 7.28442Z" fill="#64748B"/>
<path d="M12.5718 7.28442C12.2062 7.28442 11.9249 7.56567 11.9249 7.9313C11.9249 8.29692 12.2062 8.57817 12.5718 8.57817C12.9374 8.57817 13.2187 8.29692 13.2187 7.9313C13.2187 7.56567 12.9093 7.28442 12.5718 7.28442Z" fill="#64748B"/>
</svg>
